<svg xmlns="http://www.w3.org/2000/svg" viewBox="0 0 48 48" width="100%" height="100%"
     style="image-rendering: pixelated; image-rendering: crisp-edges;">
  <rect x="18" y="3" width="13" height="1" fill="#2f6bd0"/>
  <rect x="15" y="4" width="19" height="1" fill="#2f6bd0"/>
  <rect x="13" y="5" width="23" height="1" fill="#2f6bd0"/>
  <rect x="12" y="6" width="6" height="1" fill="#2f6bd0"/>
  <rect x="31" y="6" width="6" height="1" fill="#2f6bd0"/>
  <rect x="11" y="7" width="5" height="1" fill="#2f6bd0"/>
  <rect x="33" y="7" width="5" height="1" fill="#2f6bd0"/>
  <rect x="9" y="8" width="5" height="1" fill="#2f6bd0"/>
  <rect x="35" y="8" width="5" height="1" fill="#2f6bd0"/>
  <rect x="8" y="9" width="5" height="1" fill="#2f6bd0"/>
  <rect x="36" y="9" width="5" height="1" fill="#2f6bd0"/>
  <rect x="8" y="10" width="4" height="1" fill="#2f6bd0"/>
  <rect x="37" y="10" width="4" height="1" fill="#2f6bd0"/>
  <rect x="7" y="11" width="4" height="1" fill="#2f6bd0"/>
  <rect x="38" y="11" width="4" height="1" fill="#2f6bd0"/>
  <rect x="6" y="12" width="4" height="1" fill="#2f6bd0"/>
  <rect x="39" y="12" width="4" height="1" fill="#2f6bd0"/>
  <rect x="5" y="13" width="4" height="1" fill="#2f6bd0"/>
  <rect x="40" y="13" width="4" height="1" fill="#2f6bd0"/>
  <rect x="5" y="14" width="3" height="1" fill="#2f6bd0"/>
  <rect x="41" y="14" width="3" height="1" fill="#2f6bd0"/>
  <rect x="4" y="15" width="4" height="1" fill="#2f6bd0"/>
  <rect x="41" y="15" width="4" height="1" fill="#2f6bd0"/>
  <rect x="4" y="16" width="3" height="1" fill="#2f6bd0"/>
  <rect x="42" y="16" width="3" height="1" fill="#2f6bd0"/>
  <rect x="4" y="17" width="3" height="1" fill="#2f6bd0"/>
  <rect x="42" y="17" width="3" height="1" fill="#2f6bd0"/>
  <rect x="3" y="18" width="3" height="1" fill="#2f6bd0"/>
  <rect x="43" y="18" width="3" height="1" fill="#2f6bd0"/>
  <rect x="3" y="19" width="3" height="1" fill="#2f6bd0"/>
  <rect x="43" y="19" width="3" height="1" fill="#2f6bd0"/>
  <rect x="3" y="20" width="3" height="1" fill="#2f6bd0"/>
  <rect x="43" y="20" width="3" height="1" fill="#2f6bd0"/>
  <rect x="3" y="21" width="3" height="1" fill="#2f6bd0"/>
  <rect x="43" y="21" width="3" height="1" fill="#2f6bd0"/>
  <rect x="3" y="22" width="3" height="1" fill="#2f6bd0"/>
  <rect x="43" y="22" width="3" height="1" fill="#2f6bd0"/>
  <rect x="3" y="23" width="3" height="1" fill="#2f6bd0"/>
  <rect x="43" y="23" width="3" height="1" fill="#2f6bd0"/>
  <rect x="2" y="24" width="3" height="1" fill="#2f6bd0"/>
  <rect x="44" y="24" width="3" height="1" fill="#2f6bd0"/>
  <rect x="3" y="25" width="3" height="1" fill="#2f6bd0"/>
  <rect x="43" y="25" width="3" height="1" fill="#2f6bd0"/>
  <rect x="3" y="26" width="3" height="1" fill="#2f6bd0"/>
  <rect x="43" y="26" width="3" height="1" fill="#2f6bd0"/>
  <rect x="3" y="27" width="3" height="1" fill="#2f6bd0"/>
  <rect x="43" y="27" width="3" height="1" fill="#2f6bd0"/>
  <rect x="3" y="28" width="3" height="1" fill="#2f6bd0"/>
  <rect x="43" y="28" width="3" height="1" fill="#2f6bd0"/>
  <rect x="3" y="29" width="3" height="1" fill="#2f6bd0"/>
  <rect x="43" y="29" width="3" height="1" fill="#2f6bd0"/>
  <rect x="3" y="30" width="3" height="1" fill="#2f6bd0"/>
  <rect x="43" y="30" width="3" height="1" fill="#2f6bd0"/>
  <rect x="4" y="31" width="3" height="1" fill="#2f6bd0"/>
  <rect x="42" y="31" width="3" height="1" fill="#2f6bd0"/>
  <rect x="4" y="32" width="3" height="1" fill="#2f6bd0"/>
  <rect x="42" y="32" width="3" height="1" fill="#2f6bd0"/>
  <rect x="4" y="33" width="4" height="1" fill="#2f6bd0"/>
  <rect x="41" y="33" width="4" height="1" fill="#2f6bd0"/>
  <rect x="5" y="34" width="3" height="1" fill="#2f6bd0"/>
  <rect x="41" y="34" width="3" height="1" fill="#2f6bd0"/>
  <rect x="5" y="35" width="4" height="1" fill="#2f6bd0"/>
  <rect x="40" y="35" width="4" height="1" fill="#2f6bd0"/>
  <rect x="6" y="36" width="4" height="1" fill="#2f6bd0"/>
  <rect x="39" y="36" width="4" height="1" fill="#2f6bd0"/>
  <rect x="7" y="37" width="4" height="1" fill="#2f6bd0"/>
  <rect x="38" y="37" width="4" height="1" fill="#2f6bd0"/>
  <rect x="8" y="38" width="4" height="1" fill="#2f6bd0"/>
  <rect x="37" y="38" width="4" height="1" fill="#2f6bd0"/>
  <rect x="8" y="39" width="5" height="1" fill="#2f6bd0"/>
  <rect x="36" y="39" width="5" height="1" fill="#2f6bd0"/>
  <rect x="9" y="40" width="5" height="1" fill="#2f6bd0"/>
  <rect x="35" y="40" width="5" height="1" fill="#2f6bd0"/>
  <rect x="11" y="41" width="5" height="1" fill="#2f6bd0"/>
  <rect x="33" y="41" width="5" height="1" fill="#2f6bd0"/>
  <rect x="12" y="42" width="6" height="1" fill="#2f6bd0"/>
  <rect x="31" y="42" width="6" height="1" fill="#2f6bd0"/>
  <rect x="13" y="43" width="23" height="1" fill="#2f6bd0"/>
  <rect x="15" y="44" width="19" height="1" fill="#2f6bd0"/>
  <rect x="18" y="45" width="13" height="1" fill="#2f6bd0"/>
  <rect x="18" y="4" width="13" height="1" fill="#6ea8f5"/>
  <rect x="16" y="5" width="2" height="1" fill="#6ea8f5"/>
  <rect x="31" y="5" width="2" height="1" fill="#6ea8f5"/>
  <rect x="14" y="6" width="2" height="1" fill="#6ea8f5"/>
  <rect x="33" y="6" width="2" height="1" fill="#6ea8f5"/>
  <rect x="12" y="7" width="2" height="1" fill="#6ea8f5"/>
  <rect x="35" y="7" width="2" height="1" fill="#6ea8f5"/>
  <rect x="11" y="8" width="1" height="1" fill="#6ea8f5"/>
  <rect x="37" y="8" width="1" height="1" fill="#6ea8f5"/>
  <rect x="10" y="9" width="1" height="1" fill="#6ea8f5"/>
  <rect x="38" y="9" width="1" height="1" fill="#6ea8f5"/>
  <rect x="9" y="10" width="1" height="1" fill="#6ea8f5"/>
  <rect x="39" y="10" width="1" height="1" fill="#6ea8f5"/>
  <rect x="8" y="11" width="1" height="1" fill="#6ea8f5"/>
  <rect x="40" y="11" width="1" height="1" fill="#6ea8f5"/>
  <rect x="7" y="12" width="1" height="1" fill="#6ea8f5"/>
  <rect x="41" y="12" width="1" height="1" fill="#6ea8f5"/>
  <rect x="7" y="13" width="1" height="1" fill="#6ea8f5"/>
  <rect x="41" y="13" width="1" height="1" fill="#6ea8f5"/>
  <rect x="6" y="14" width="1" height="1" fill="#6ea8f5"/>
  <rect x="42" y="14" width="1" height="1" fill="#6ea8f5"/>
  <rect x="6" y="15" width="1" height="1" fill="#6ea8f5"/>
  <rect x="42" y="15" width="1" height="1" fill="#6ea8f5"/>
  <rect x="5" y="16" width="1" height="1" fill="#6ea8f5"/>
  <rect x="43" y="16" width="1" height="1" fill="#6ea8f5"/>
  <rect x="5" y="17" width="1" height="1" fill="#6ea8f5"/>
  <rect x="43" y="17" width="1" height="1" fill="#6ea8f5"/>
  <rect x="4" y="18" width="1" height="1" fill="#6ea8f5"/>
  <rect x="44" y="18" width="1" height="1" fill="#6ea8f5"/>
  <rect x="4" y="19" width="1" height="1" fill="#6ea8f5"/>
  <rect x="44" y="19" width="1" height="1" fill="#6ea8f5"/>
  <rect x="4" y="20" width="1" height="1" fill="#6ea8f5"/>
  <rect x="44" y="20" width="1" height="1" fill="#6ea8f5"/>
  <rect x="4" y="21" width="1" height="1" fill="#6ea8f5"/>
  <rect x="44" y="21" width="1" height="1" fill="#6ea8f5"/>
  <rect x="4" y="22" width="1" height="1" fill="#6ea8f5"/>
  <rect x="44" y="22" width="1" height="1" fill="#6ea8f5"/>
  <rect x="4" y="23" width="1" height="1" fill="#6ea8f5"/>
  <rect x="44" y="23" width="1" height="1" fill="#6ea8f5"/>
  <rect x="3" y="24" width="1" height="1" fill="#6ea8f5"/>
  <rect x="45" y="24" width="1" height="1" fill="#6ea8f5"/>
  <rect x="4" y="25" width="1" height="1" fill="#6ea8f5"/>
  <rect x="44" y="25" width="1" height="1" fill="#6ea8f5"/>
  <rect x="4" y="26" width="1" height="1" fill="#6ea8f5"/>
  <rect x="44" y="26" width="1" height="1" fill="#6ea8f5"/>
  <rect x="4" y="27" width="1" height="1" fill="#6ea8f5"/>
  <rect x="44" y="27" width="1" height="1" fill="#6ea8f5"/>
  <rect x="4" y="28" width="1" height="1" fill="#6ea8f5"/>
  <rect x="44" y="28" width="1" height="1" fill="#6ea8f5"/>
  <rect x="4" y="29" width="1" height="1" fill="#6ea8f5"/>
  <rect x="44" y="29" width="1" height="1" fill="#6ea8f5"/>
  <rect x="4" y="30" width="1" height="1" fill="#6ea8f5"/>
  <rect x="44" y="30" width="1" height="1" fill="#6ea8f5"/>
  <rect x="5" y="31" width="1" height="1" fill="#6ea8f5"/>
  <rect x="43" y="31" width="1" height="1" fill="#6ea8f5"/>
  <rect x="5" y="32" width="1" height="1" fill="#6ea8f5"/>
  <rect x="43" y="32" width="1" height="1" fill="#6ea8f5"/>
  <rect x="6" y="33" width="1" height="1" fill="#6ea8f5"/>
  <rect x="42" y="33" width="1" height="1" fill="#6ea8f5"/>
  <rect x="6" y="34" width="1" height="1" fill="#6ea8f5"/>
  <rect x="42" y="34" width="1" height="1" fill="#6ea8f5"/>
  <rect x="7" y="35" width="1" height="1" fill="#6ea8f5"/>
  <rect x="41" y="35" width="1" height="1" fill="#6ea8f5"/>
  <rect x="7" y="36" width="1" height="1" fill="#6ea8f5"/>
  <rect x="41" y="36" width="1" height="1" fill="#6ea8f5"/>
  <rect x="8" y="37" width="1" height="1" fill="#6ea8f5"/>
  <rect x="40" y="37" width="1" height="1" fill="#6ea8f5"/>
  <rect x="9" y="38" width="1" height="1" fill="#6ea8f5"/>
  <rect x="39" y="38" width="1" height="1" fill="#6ea8f5"/>
  <rect x="10" y="39" width="1" height="1" fill="#6ea8f5"/>
  <rect x="38" y="39" width="1" height="1" fill="#6ea8f5"/>
  <rect x="11" y="40" width="1" height="1" fill="#6ea8f5"/>
  <rect x="37" y="40" width="1" height="1" fill="#6ea8f5"/>
  <rect x="12" y="41" width="2" height="1" fill="#6ea8f5"/>
  <rect x="35" y="41" width="2" height="1" fill="#6ea8f5"/>
  <rect x="14" y="42" width="2" height="1" fill="#6ea8f5"/>
  <rect x="33" y="42" width="2" height="1" fill="#6ea8f5"/>
  <rect x="16" y="43" width="2" height="1" fill="#6ea8f5"/>
  <rect x="31" y="43" width="2" height="1" fill="#6ea8f5"/>
  <rect x="18" y="44" width="13" height="1" fill="#6ea8f5"/>
  <rect x="19" y="9" width="11" height="1" fill="#6ea8f5"/>
  <rect x="17" y="10" width="15" height="1" fill="#6ea8f5"/>
  <rect x="15" y="11" width="4" height="1" fill="#6ea8f5"/>
  <rect x="30" y="11" width="4" height="1" fill="#6ea8f5"/>
  <rect x="14" y="12" width="3" height="1" fill="#6ea8f5"/>
  <rect x="32" y="12" width="3" height="1" fill="#6ea8f5"/>
  <rect x="13" y="13" width="3" height="1" fill="#6ea8f5"/>
  <rect x="33" y="13" width="3" height="1" fill="#6ea8f5"/>
  <rect x="12" y="14" width="3" height="1" fill="#6ea8f5"/>
  <rect x="34" y="14" width="3" height="1" fill="#6ea8f5"/>
  <rect x="11" y="15" width="3" height="1" fill="#6ea8f5"/>
  <rect x="35" y="15" width="3" height="1" fill="#6ea8f5"/>
  <rect x="11" y="16" width="2" height="1" fill="#6ea8f5"/>
  <rect x="36" y="16" width="2" height="1" fill="#6ea8f5"/>
  <rect x="10" y="17" width="2" height="1" fill="#6ea8f5"/>
  <rect x="37" y="17" width="2" height="1" fill="#6ea8f5"/>
  <rect x="10" y="18" width="2" height="1" fill="#6ea8f5"/>
  <rect x="37" y="18" width="2" height="1" fill="#6ea8f5"/>
  <rect x="9" y="19" width="2" height="1" fill="#6ea8f5"/>
  <rect x="38" y="19" width="2" height="1" fill="#6ea8f5"/>
  <rect x="9" y="20" width="2" height="1" fill="#6ea8f5"/>
  <rect x="38" y="20" width="2" height="1" fill="#6ea8f5"/>
  <rect x="9" y="21" width="2" height="1" fill="#6ea8f5"/>
  <rect x="38" y="21" width="2" height="1" fill="#6ea8f5"/>
  <rect x="9" y="22" width="2" height="1" fill="#6ea8f5"/>
  <rect x="38" y="22" width="2" height="1" fill="#6ea8f5"/>
  <rect x="9" y="23" width="2" height="1" fill="#6ea8f5"/>
  <rect x="38" y="23" width="2" height="1" fill="#6ea8f5"/>
  <rect x="8" y="24" width="2" height="1" fill="#6ea8f5"/>
  <rect x="39" y="24" width="2" height="1" fill="#6ea8f5"/>
  <rect x="9" y="25" width="2" height="1" fill="#6ea8f5"/>
  <rect x="38" y="25" width="2" height="1" fill="#6ea8f5"/>
  <rect x="9" y="26" width="2" height="1" fill="#6ea8f5"/>
  <rect x="38" y="26" width="2" height="1" fill="#6ea8f5"/>
  <rect x="9" y="27" width="2" height="1" fill="#6ea8f5"/>
  <rect x="38" y="27" width="2" height="1" fill="#6ea8f5"/>
  <rect x="9" y="28" width="2" height="1" fill="#6ea8f5"/>
  <rect x="38" y="28" width="2" height="1" fill="#6ea8f5"/>
  <rect x="9" y="29" width="2" height="1" fill="#6ea8f5"/>
  <rect x="38" y="29" width="2" height="1" fill="#6ea8f5"/>
  <rect x="10" y="30" width="2" height="1" fill="#6ea8f5"/>
  <rect x="37" y="30" width="2" height="1" fill="#6ea8f5"/>
  <rect x="10" y="31" width="2" height="1" fill="#6ea8f5"/>
  <rect x="37" y="31" width="2" height="1" fill="#6ea8f5"/>
  <rect x="11" y="32" width="2" height="1" fill="#6ea8f5"/>
  <rect x="36" y="32" width="2" height="1" fill="#6ea8f5"/>
  <rect x="11" y="33" width="3" height="1" fill="#6ea8f5"/>
  <rect x="35" y="33" width="3" height="1" fill="#6ea8f5"/>
  <rect x="12" y="34" width="3" height="1" fill="#6ea8f5"/>
  <rect x="34" y="34" width="3" height="1" fill="#6ea8f5"/>
  <rect x="13" y="35" width="3" height="1" fill="#6ea8f5"/>
  <rect x="33" y="35" width="3" height="1" fill="#6ea8f5"/>
  <rect x="14" y="36" width="3" height="1" fill="#6ea8f5"/>
  <rect x="32" y="36" width="3" height="1" fill="#6ea8f5"/>
  <rect x="15" y="37" width="4" height="1" fill="#6ea8f5"/>
  <rect x="30" y="37" width="4" height="1" fill="#6ea8f5"/>
  <rect x="17" y="38" width="15" height="1" fill="#6ea8f5"/>
  <rect x="19" y="39" width="11" height="1" fill="#6ea8f5"/>
  <rect x="19" y="10" width="11" height="1" fill="#dff0ff"/>
  <rect x="17" y="11" width="2" height="1" fill="#dff0ff"/>
  <rect x="30" y="11" width="2" height="1" fill="#dff0ff"/>
  <rect x="15" y="12" width="2" height="1" fill="#dff0ff"/>
  <rect x="32" y="12" width="2" height="1" fill="#dff0ff"/>
  <rect x="14" y="13" width="2" height="1" fill="#dff0ff"/>
  <rect x="33" y="13" width="2" height="1" fill="#dff0ff"/>
  <rect x="13" y="14" width="2" height="1" fill="#dff0ff"/>
  <rect x="34" y="14" width="2" height="1" fill="#dff0ff"/>
  <rect x="12" y="15" width="2" height="1" fill="#dff0ff"/>
  <rect x="35" y="15" width="2" height="1" fill="#dff0ff"/>
  <rect x="12" y="16" width="1" height="1" fill="#dff0ff"/>
  <rect x="36" y="16" width="1" height="1" fill="#dff0ff"/>
  <rect x="11" y="17" width="1" height="1" fill="#dff0ff"/>
  <rect x="37" y="17" width="1" height="1" fill="#dff0ff"/>
  <rect x="11" y="18" width="1" height="1" fill="#dff0ff"/>
  <rect x="37" y="18" width="1" height="1" fill="#dff0ff"/>
  <rect x="10" y="19" width="1" height="1" fill="#dff0ff"/>
  <rect x="38" y="19" width="1" height="1" fill="#dff0ff"/>
  <rect x="10" y="20" width="1" height="1" fill="#dff0ff"/>
  <rect x="38" y="20" width="1" height="1" fill="#dff0ff"/>
  <rect x="10" y="21" width="1" height="1" fill="#dff0ff"/>
  <rect x="38" y="21" width="1" height="1" fill="#dff0ff"/>
  <rect x="10" y="22" width="1" height="1" fill="#dff0ff"/>
  <rect x="38" y="22" width="1" height="1" fill="#dff0ff"/>
  <rect x="10" y="23" width="1" height="1" fill="#dff0ff"/>
  <rect x="38" y="23" width="1" height="1" fill="#dff0ff"/>
  <rect x="9" y="24" width="1" height="1" fill="#dff0ff"/>
  <rect x="39" y="24" width="1" height="1" fill="#dff0ff"/>
  <rect x="10" y="25" width="1" height="1" fill="#dff0ff"/>
  <rect x="38" y="25" width="1" height="1" fill="#dff0ff"/>
  <rect x="10" y="26" width="1" height="1" fill="#dff0ff"/>
  <rect x="38" y="26" width="1" height="1" fill="#dff0ff"/>
  <rect x="10" y="27" width="1" height="1" fill="#dff0ff"/>
  <rect x="38" y="27" width="1" height="1" fill="#dff0ff"/>
  <rect x="10" y="28" width="1" height="1" fill="#dff0ff"/>
  <rect x="38" y="28" width="1" height="1" fill="#dff0ff"/>
  <rect x="10" y="29" width="1" height="1" fill="#dff0ff"/>
  <rect x="38" y="29" width="1" height="1" fill="#dff0ff"/>
  <rect x="11" y="30" width="1" height="1" fill="#dff0ff"/>
  <rect x="37" y="30" width="1" height="1" fill="#dff0ff"/>
  <rect x="11" y="31" width="1" height="1" fill="#dff0ff"/>
  <rect x="37" y="31" width="1" height="1" fill="#dff0ff"/>
  <rect x="12" y="32" width="1" height="1" fill="#dff0ff"/>
  <rect x="36" y="32" width="1" height="1" fill="#dff0ff"/>
  <rect x="12" y="33" width="2" height="1" fill="#dff0ff"/>
  <rect x="35" y="33" width="2" height="1" fill="#dff0ff"/>
  <rect x="13" y="34" width="2" height="1" fill="#dff0ff"/>
  <rect x="34" y="34" width="2" height="1" fill="#dff0ff"/>
  <rect x="14" y="35" width="2" height="1" fill="#dff0ff"/>
  <rect x="33" y="35" width="2" height="1" fill="#dff0ff"/>
  <rect x="15" y="36" width="2" height="1" fill="#dff0ff"/>
  <rect x="32" y="36" width="2" height="1" fill="#dff0ff"/>
  <rect x="17" y="37" width="2" height="1" fill="#dff0ff"/>
  <rect x="30" y="37" width="2" height="1" fill="#dff0ff"/>
  <rect x="19" y="38" width="11" height="1" fill="#dff0ff"/>
  <rect x="23" y="3" width="3" height="1" fill="#dff0ff"/>
  <rect x="22" y="4" width="5" height="1" fill="#dff0ff"/>
  <rect x="23" y="5" width="3" height="1" fill="#dff0ff"/>
  <rect x="23" y="43" width="3" height="1" fill="#dff0ff"/>
  <rect x="22" y="44" width="5" height="1" fill="#dff0ff"/>
  <rect x="23" y="45" width="3" height="1" fill="#dff0ff"/>
  <rect x="3" y="23" width="3" height="1" fill="#dff0ff"/>
  <rect x="2" y="24" width="5" height="1" fill="#dff0ff"/>
  <rect x="3" y="25" width="3" height="1" fill="#dff0ff"/>
  <rect x="43" y="23" width="3" height="1" fill="#dff0ff"/>
  <rect x="42" y="24" width="5" height="1" fill="#dff0ff"/>
  <rect x="43" y="25" width="3" height="1" fill="#dff0ff"/>
</svg>
