<svg xmlns="http://www.w3.org/2000/svg" viewBox="0 0 48 48" width="100%" height="100%"
     style="image-rendering: pixelated; image-rendering: crisp-edges;">
  <rect x="20" y="46" width="8" height="1" fill="#0d0616"/>
  <rect x="21" y="46" width="6" height="1" fill="#4a2270"/>
  <rect x="24" y="46" width="1" height="1" fill="#b45cf0"/>
  <rect x="20" y="45" width="8" height="1" fill="#0d0616"/>
  <rect x="21" y="45" width="6" height="1" fill="#4a2270"/>
  <rect x="20" y="44" width="8" height="1" fill="#0d0616"/>
  <rect x="21" y="44" width="6" height="1" fill="#4a2270"/>
  <rect x="20" y="43" width="8" height="1" fill="#0d0616"/>
  <rect x="21" y="43" width="6" height="1" fill="#4a2270"/>
  <rect x="20" y="42" width="8" height="1" fill="#0d0616"/>
  <rect x="21" y="42" width="6" height="1" fill="#4a2270"/>
  <rect x="24" y="42" width="1" height="1" fill="#b45cf0"/>
  <rect x="21" y="41" width="7" height="1" fill="#0d0616"/>
  <rect x="22" y="41" width="5" height="1" fill="#4a2270"/>
  <rect x="21" y="40" width="7" height="1" fill="#0d0616"/>
  <rect x="22" y="40" width="5" height="1" fill="#4a2270"/>
  <rect x="21" y="39" width="7" height="1" fill="#0d0616"/>
  <rect x="22" y="39" width="5" height="1" fill="#4a2270"/>
  <rect x="21" y="38" width="7" height="1" fill="#0d0616"/>
  <rect x="22" y="38" width="5" height="1" fill="#4a2270"/>
  <rect x="24" y="38" width="1" height="1" fill="#b45cf0"/>
  <rect x="21" y="37" width="7" height="1" fill="#0d0616"/>
  <rect x="22" y="37" width="5" height="1" fill="#4a2270"/>
  <rect x="21" y="36" width="7" height="1" fill="#0d0616"/>
  <rect x="22" y="36" width="5" height="1" fill="#4a2270"/>
  <rect x="21" y="35" width="7" height="1" fill="#0d0616"/>
  <rect x="22" y="35" width="5" height="1" fill="#4a2270"/>
  <rect x="21" y="34" width="7" height="1" fill="#0d0616"/>
  <rect x="22" y="34" width="5" height="1" fill="#4a2270"/>
  <rect x="24" y="34" width="1" height="1" fill="#b45cf0"/>
  <rect x="21" y="33" width="6" height="1" fill="#0d0616"/>
  <rect x="22" y="33" width="4" height="1" fill="#4a2270"/>
  <rect x="21" y="32" width="6" height="1" fill="#0d0616"/>
  <rect x="22" y="32" width="4" height="1" fill="#4a2270"/>
  <rect x="21" y="31" width="6" height="1" fill="#0d0616"/>
  <rect x="22" y="31" width="4" height="1" fill="#4a2270"/>
  <rect x="21" y="30" width="6" height="1" fill="#0d0616"/>
  <rect x="22" y="30" width="4" height="1" fill="#4a2270"/>
  <rect x="24" y="30" width="1" height="1" fill="#b45cf0"/>
  <rect x="21" y="29" width="6" height="1" fill="#0d0616"/>
  <rect x="22" y="29" width="4" height="1" fill="#4a2270"/>
  <rect x="21" y="28" width="6" height="1" fill="#0d0616"/>
  <rect x="22" y="28" width="4" height="1" fill="#4a2270"/>
  <rect x="21" y="27" width="6" height="1" fill="#0d0616"/>
  <rect x="22" y="27" width="4" height="1" fill="#4a2270"/>
  <rect x="21" y="26" width="6" height="1" fill="#0d0616"/>
  <rect x="22" y="26" width="4" height="1" fill="#4a2270"/>
  <rect x="24" y="26" width="1" height="1" fill="#b45cf0"/>
  <rect x="21" y="25" width="6" height="1" fill="#0d0616"/>
  <rect x="22" y="25" width="4" height="1" fill="#4a2270"/>
  <rect x="22" y="24" width="5" height="1" fill="#0d0616"/>
  <rect x="23" y="24" width="3" height="1" fill="#4a2270"/>
  <rect x="22" y="23" width="5" height="1" fill="#0d0616"/>
  <rect x="23" y="23" width="3" height="1" fill="#4a2270"/>
  <rect x="22" y="22" width="5" height="1" fill="#0d0616"/>
  <rect x="23" y="22" width="3" height="1" fill="#4a2270"/>
  <rect x="24" y="22" width="1" height="1" fill="#b45cf0"/>
  <rect x="22" y="21" width="5" height="1" fill="#0d0616"/>
  <rect x="23" y="21" width="3" height="1" fill="#4a2270"/>
  <rect x="22" y="20" width="5" height="1" fill="#0d0616"/>
  <rect x="23" y="20" width="3" height="1" fill="#4a2270"/>
  <rect x="22" y="19" width="5" height="1" fill="#0d0616"/>
  <rect x="23" y="19" width="3" height="1" fill="#4a2270"/>
  <rect x="22" y="18" width="5" height="1" fill="#0d0616"/>
  <rect x="23" y="18" width="3" height="1" fill="#4a2270"/>
  <rect x="24" y="18" width="1" height="1" fill="#b45cf0"/>
  <rect x="22" y="17" width="5" height="1" fill="#0d0616"/>
  <rect x="23" y="17" width="3" height="1" fill="#4a2270"/>
  <rect x="22" y="16" width="4" height="1" fill="#0d0616"/>
  <rect x="23" y="16" width="2" height="1" fill="#4a2270"/>
  <rect x="22" y="15" width="4" height="1" fill="#0d0616"/>
  <rect x="23" y="15" width="2" height="1" fill="#4a2270"/>
  <rect x="22" y="14" width="4" height="1" fill="#0d0616"/>
  <rect x="23" y="14" width="2" height="1" fill="#4a2270"/>
  <rect x="24" y="14" width="1" height="1" fill="#b45cf0"/>
  <rect x="22" y="13" width="4" height="1" fill="#0d0616"/>
  <rect x="23" y="13" width="2" height="1" fill="#4a2270"/>
  <rect x="22" y="12" width="4" height="1" fill="#0d0616"/>
  <rect x="23" y="12" width="2" height="1" fill="#4a2270"/>
  <rect x="22" y="11" width="4" height="1" fill="#0d0616"/>
  <rect x="23" y="11" width="2" height="1" fill="#4a2270"/>
  <rect x="22" y="10" width="4" height="1" fill="#0d0616"/>
  <rect x="23" y="10" width="2" height="1" fill="#4a2270"/>
  <rect x="24" y="10" width="1" height="1" fill="#b45cf0"/>
  <rect x="22" y="9" width="4" height="1" fill="#0d0616"/>
  <rect x="23" y="9" width="2" height="1" fill="#4a2270"/>
  <rect x="23" y="8" width="3" height="1" fill="#0d0616"/>
  <rect x="24" y="8" width="1" height="1" fill="#4a2270"/>
  <rect x="23" y="7" width="3" height="1" fill="#0d0616"/>
  <rect x="24" y="7" width="1" height="1" fill="#4a2270"/>
  <rect x="23" y="6" width="3" height="1" fill="#0d0616"/>
  <rect x="24" y="6" width="1" height="1" fill="#4a2270"/>
  <rect x="24" y="6" width="1" height="1" fill="#b45cf0"/>
  <rect x="23" y="5" width="3" height="1" fill="#0d0616"/>
  <rect x="24" y="5" width="1" height="1" fill="#4a2270"/>
  <rect x="23" y="4" width="3" height="1" fill="#0d0616"/>
  <rect x="24" y="4" width="1" height="1" fill="#4a2270"/>
  <rect x="22" y="-1" width="5" height="1" fill="#0d0616"/>
  <rect x="21" y="0" width="7" height="1" fill="#0d0616"/>
  <rect x="21" y="1" width="7" height="1" fill="#0d0616"/>
  <rect x="20" y="2" width="9" height="1" fill="#0d0616"/>
  <rect x="21" y="3" width="7" height="1" fill="#0d0616"/>
  <rect x="21" y="4" width="7" height="1" fill="#0d0616"/>
  <rect x="22" y="5" width="5" height="1" fill="#0d0616"/>
  <rect x="22" y="0" width="5" height="1" fill="#b45cf0"/>
  <rect x="22" y="1" width="5" height="1" fill="#b45cf0"/>
  <rect x="21" y="2" width="7" height="1" fill="#b45cf0"/>
  <rect x="22" y="3" width="5" height="1" fill="#b45cf0"/>
  <rect x="22" y="4" width="5" height="1" fill="#b45cf0"/>
  <rect x="23" y="2" width="3" height="1" fill="#efc6ff"/>
  <rect x="10" y="46" width="8" height="1" fill="#0d0616"/>
  <rect x="11" y="46" width="6" height="1" fill="#4a2270"/>
  <rect x="14" y="46" width="1" height="1" fill="#b45cf0"/>
  <rect x="10" y="45" width="8" height="1" fill="#0d0616"/>
  <rect x="11" y="45" width="6" height="1" fill="#4a2270"/>
  <rect x="10" y="44" width="8" height="1" fill="#0d0616"/>
  <rect x="11" y="44" width="6" height="1" fill="#4a2270"/>
  <rect x="10" y="43" width="8" height="1" fill="#0d0616"/>
  <rect x="11" y="43" width="6" height="1" fill="#4a2270"/>
  <rect x="11" y="42" width="7" height="1" fill="#0d0616"/>
  <rect x="12" y="42" width="5" height="1" fill="#4a2270"/>
  <rect x="14" y="42" width="1" height="1" fill="#b45cf0"/>
  <rect x="11" y="41" width="7" height="1" fill="#0d0616"/>
  <rect x="12" y="41" width="5" height="1" fill="#4a2270"/>
  <rect x="11" y="40" width="7" height="1" fill="#0d0616"/>
  <rect x="12" y="40" width="5" height="1" fill="#4a2270"/>
  <rect x="11" y="39" width="7" height="1" fill="#0d0616"/>
  <rect x="12" y="39" width="5" height="1" fill="#4a2270"/>
  <rect x="11" y="38" width="7" height="1" fill="#0d0616"/>
  <rect x="12" y="38" width="5" height="1" fill="#4a2270"/>
  <rect x="14" y="38" width="1" height="1" fill="#b45cf0"/>
  <rect x="11" y="37" width="7" height="1" fill="#0d0616"/>
  <rect x="12" y="37" width="5" height="1" fill="#4a2270"/>
  <rect x="10" y="36" width="7" height="1" fill="#0d0616"/>
  <rect x="11" y="36" width="5" height="1" fill="#4a2270"/>
  <rect x="10" y="35" width="6" height="1" fill="#0d0616"/>
  <rect x="11" y="35" width="4" height="1" fill="#4a2270"/>
  <rect x="10" y="34" width="6" height="1" fill="#0d0616"/>
  <rect x="11" y="34" width="4" height="1" fill="#4a2270"/>
  <rect x="13" y="34" width="1" height="1" fill="#b45cf0"/>
  <rect x="10" y="33" width="6" height="1" fill="#0d0616"/>
  <rect x="11" y="33" width="4" height="1" fill="#4a2270"/>
  <rect x="10" y="32" width="6" height="1" fill="#0d0616"/>
  <rect x="11" y="32" width="4" height="1" fill="#4a2270"/>
  <rect x="10" y="31" width="6" height="1" fill="#0d0616"/>
  <rect x="11" y="31" width="4" height="1" fill="#4a2270"/>
  <rect x="9" y="30" width="6" height="1" fill="#0d0616"/>
  <rect x="10" y="30" width="4" height="1" fill="#4a2270"/>
  <rect x="12" y="30" width="1" height="1" fill="#b45cf0"/>
  <rect x="9" y="29" width="6" height="1" fill="#0d0616"/>
  <rect x="10" y="29" width="4" height="1" fill="#4a2270"/>
  <rect x="10" y="28" width="5" height="1" fill="#0d0616"/>
  <rect x="11" y="28" width="3" height="1" fill="#4a2270"/>
  <rect x="10" y="27" width="5" height="1" fill="#0d0616"/>
  <rect x="11" y="27" width="3" height="1" fill="#4a2270"/>
  <rect x="10" y="26" width="5" height="1" fill="#0d0616"/>
  <rect x="11" y="26" width="3" height="1" fill="#4a2270"/>
  <rect x="12" y="26" width="1" height="1" fill="#b45cf0"/>
  <rect x="9" y="25" width="5" height="1" fill="#0d0616"/>
  <rect x="10" y="25" width="3" height="1" fill="#4a2270"/>
  <rect x="9" y="24" width="5" height="1" fill="#0d0616"/>
  <rect x="10" y="24" width="3" height="1" fill="#4a2270"/>
  <rect x="9" y="23" width="5" height="1" fill="#0d0616"/>
  <rect x="10" y="23" width="3" height="1" fill="#4a2270"/>
  <rect x="9" y="22" width="4" height="1" fill="#0d0616"/>
  <rect x="10" y="22" width="2" height="1" fill="#4a2270"/>
  <rect x="11" y="22" width="1" height="1" fill="#b45cf0"/>
  <rect x="8" y="21" width="4" height="1" fill="#0d0616"/>
  <rect x="9" y="21" width="2" height="1" fill="#4a2270"/>
  <rect x="8" y="20" width="4" height="1" fill="#0d0616"/>
  <rect x="9" y="20" width="2" height="1" fill="#4a2270"/>
  <rect x="8" y="19" width="4" height="1" fill="#0d0616"/>
  <rect x="9" y="19" width="2" height="1" fill="#4a2270"/>
  <rect x="7" y="18" width="4" height="1" fill="#0d0616"/>
  <rect x="8" y="18" width="2" height="1" fill="#4a2270"/>
  <rect x="9" y="18" width="1" height="1" fill="#b45cf0"/>
  <rect x="7" y="17" width="4" height="1" fill="#0d0616"/>
  <rect x="8" y="17" width="2" height="1" fill="#4a2270"/>
  <rect x="7" y="16" width="4" height="1" fill="#0d0616"/>
  <rect x="8" y="16" width="2" height="1" fill="#4a2270"/>
  <rect x="7" y="15" width="3" height="1" fill="#0d0616"/>
  <rect x="8" y="15" width="1" height="1" fill="#4a2270"/>
  <rect x="7" y="14" width="3" height="1" fill="#0d0616"/>
  <rect x="8" y="14" width="1" height="1" fill="#4a2270"/>
  <rect x="8" y="14" width="1" height="1" fill="#b45cf0"/>
  <rect x="6" y="13" width="3" height="1" fill="#0d0616"/>
  <rect x="7" y="13" width="1" height="1" fill="#4a2270"/>
  <rect x="6" y="12" width="3" height="1" fill="#0d0616"/>
  <rect x="7" y="12" width="1" height="1" fill="#4a2270"/>
  <rect x="5" y="7" width="5" height="1" fill="#0d0616"/>
  <rect x="4" y="8" width="7" height="1" fill="#0d0616"/>
  <rect x="4" y="9" width="7" height="1" fill="#0d0616"/>
  <rect x="3" y="10" width="9" height="1" fill="#0d0616"/>
  <rect x="4" y="11" width="7" height="1" fill="#0d0616"/>
  <rect x="4" y="12" width="7" height="1" fill="#0d0616"/>
  <rect x="5" y="13" width="5" height="1" fill="#0d0616"/>
  <rect x="5" y="8" width="5" height="1" fill="#b45cf0"/>
  <rect x="5" y="9" width="5" height="1" fill="#b45cf0"/>
  <rect x="4" y="10" width="7" height="1" fill="#b45cf0"/>
  <rect x="5" y="11" width="5" height="1" fill="#b45cf0"/>
  <rect x="5" y="12" width="5" height="1" fill="#b45cf0"/>
  <rect x="6" y="10" width="3" height="1" fill="#efc6ff"/>
  <rect x="30" y="46" width="8" height="1" fill="#0d0616"/>
  <rect x="31" y="46" width="6" height="1" fill="#4a2270"/>
  <rect x="34" y="46" width="1" height="1" fill="#b45cf0"/>
  <rect x="30" y="45" width="8" height="1" fill="#0d0616"/>
  <rect x="31" y="45" width="6" height="1" fill="#4a2270"/>
  <rect x="30" y="44" width="8" height="1" fill="#0d0616"/>
  <rect x="31" y="44" width="6" height="1" fill="#4a2270"/>
  <rect x="30" y="43" width="8" height="1" fill="#0d0616"/>
  <rect x="31" y="43" width="6" height="1" fill="#4a2270"/>
  <rect x="31" y="42" width="7" height="1" fill="#0d0616"/>
  <rect x="32" y="42" width="5" height="1" fill="#4a2270"/>
  <rect x="34" y="42" width="1" height="1" fill="#b45cf0"/>
  <rect x="31" y="41" width="7" height="1" fill="#0d0616"/>
  <rect x="32" y="41" width="5" height="1" fill="#4a2270"/>
  <rect x="31" y="40" width="7" height="1" fill="#0d0616"/>
  <rect x="32" y="40" width="5" height="1" fill="#4a2270"/>
  <rect x="31" y="39" width="7" height="1" fill="#0d0616"/>
  <rect x="32" y="39" width="5" height="1" fill="#4a2270"/>
  <rect x="31" y="38" width="7" height="1" fill="#0d0616"/>
  <rect x="32" y="38" width="5" height="1" fill="#4a2270"/>
  <rect x="34" y="38" width="1" height="1" fill="#b45cf0"/>
  <rect x="31" y="37" width="7" height="1" fill="#0d0616"/>
  <rect x="32" y="37" width="5" height="1" fill="#4a2270"/>
  <rect x="32" y="36" width="7" height="1" fill="#0d0616"/>
  <rect x="33" y="36" width="5" height="1" fill="#4a2270"/>
  <rect x="32" y="35" width="6" height="1" fill="#0d0616"/>
  <rect x="33" y="35" width="4" height="1" fill="#4a2270"/>
  <rect x="32" y="34" width="6" height="1" fill="#0d0616"/>
  <rect x="33" y="34" width="4" height="1" fill="#4a2270"/>
  <rect x="35" y="34" width="1" height="1" fill="#b45cf0"/>
  <rect x="32" y="33" width="6" height="1" fill="#0d0616"/>
  <rect x="33" y="33" width="4" height="1" fill="#4a2270"/>
  <rect x="32" y="32" width="6" height="1" fill="#0d0616"/>
  <rect x="33" y="32" width="4" height="1" fill="#4a2270"/>
  <rect x="32" y="31" width="6" height="1" fill="#0d0616"/>
  <rect x="33" y="31" width="4" height="1" fill="#4a2270"/>
  <rect x="33" y="30" width="6" height="1" fill="#0d0616"/>
  <rect x="34" y="30" width="4" height="1" fill="#4a2270"/>
  <rect x="36" y="30" width="1" height="1" fill="#b45cf0"/>
  <rect x="33" y="29" width="6" height="1" fill="#0d0616"/>
  <rect x="34" y="29" width="4" height="1" fill="#4a2270"/>
  <rect x="34" y="28" width="5" height="1" fill="#0d0616"/>
  <rect x="35" y="28" width="3" height="1" fill="#4a2270"/>
  <rect x="34" y="27" width="5" height="1" fill="#0d0616"/>
  <rect x="35" y="27" width="3" height="1" fill="#4a2270"/>
  <rect x="34" y="26" width="5" height="1" fill="#0d0616"/>
  <rect x="35" y="26" width="3" height="1" fill="#4a2270"/>
  <rect x="36" y="26" width="1" height="1" fill="#b45cf0"/>
  <rect x="35" y="25" width="5" height="1" fill="#0d0616"/>
  <rect x="36" y="25" width="3" height="1" fill="#4a2270"/>
  <rect x="35" y="24" width="5" height="1" fill="#0d0616"/>
  <rect x="36" y="24" width="3" height="1" fill="#4a2270"/>
  <rect x="35" y="23" width="5" height="1" fill="#0d0616"/>
  <rect x="36" y="23" width="3" height="1" fill="#4a2270"/>
  <rect x="35" y="22" width="4" height="1" fill="#0d0616"/>
  <rect x="36" y="22" width="2" height="1" fill="#4a2270"/>
  <rect x="37" y="22" width="1" height="1" fill="#b45cf0"/>
  <rect x="36" y="21" width="4" height="1" fill="#0d0616"/>
  <rect x="37" y="21" width="2" height="1" fill="#4a2270"/>
  <rect x="36" y="20" width="4" height="1" fill="#0d0616"/>
  <rect x="37" y="20" width="2" height="1" fill="#4a2270"/>
  <rect x="36" y="19" width="4" height="1" fill="#0d0616"/>
  <rect x="37" y="19" width="2" height="1" fill="#4a2270"/>
  <rect x="37" y="18" width="4" height="1" fill="#0d0616"/>
  <rect x="38" y="18" width="2" height="1" fill="#4a2270"/>
  <rect x="39" y="18" width="1" height="1" fill="#b45cf0"/>
  <rect x="37" y="17" width="4" height="1" fill="#0d0616"/>
  <rect x="38" y="17" width="2" height="1" fill="#4a2270"/>
  <rect x="37" y="16" width="4" height="1" fill="#0d0616"/>
  <rect x="38" y="16" width="2" height="1" fill="#4a2270"/>
  <rect x="39" y="15" width="3" height="1" fill="#0d0616"/>
  <rect x="40" y="15" width="1" height="1" fill="#4a2270"/>
  <rect x="39" y="14" width="3" height="1" fill="#0d0616"/>
  <rect x="40" y="14" width="1" height="1" fill="#4a2270"/>
  <rect x="40" y="14" width="1" height="1" fill="#b45cf0"/>
  <rect x="40" y="13" width="3" height="1" fill="#0d0616"/>
  <rect x="41" y="13" width="1" height="1" fill="#4a2270"/>
  <rect x="40" y="12" width="3" height="1" fill="#0d0616"/>
  <rect x="41" y="12" width="1" height="1" fill="#4a2270"/>
  <rect x="39" y="7" width="5" height="1" fill="#0d0616"/>
  <rect x="38" y="8" width="7" height="1" fill="#0d0616"/>
  <rect x="38" y="9" width="7" height="1" fill="#0d0616"/>
  <rect x="37" y="10" width="9" height="1" fill="#0d0616"/>
  <rect x="38" y="11" width="7" height="1" fill="#0d0616"/>
  <rect x="38" y="12" width="7" height="1" fill="#0d0616"/>
  <rect x="39" y="13" width="5" height="1" fill="#0d0616"/>
  <rect x="39" y="8" width="5" height="1" fill="#b45cf0"/>
  <rect x="39" y="9" width="5" height="1" fill="#b45cf0"/>
  <rect x="38" y="10" width="7" height="1" fill="#b45cf0"/>
  <rect x="39" y="11" width="5" height="1" fill="#b45cf0"/>
  <rect x="39" y="12" width="5" height="1" fill="#b45cf0"/>
  <rect x="40" y="10" width="3" height="1" fill="#efc6ff"/>
  <rect x="4" y="46" width="8" height="1" fill="#0d0616"/>
  <rect x="5" y="46" width="6" height="1" fill="#4a2270"/>
  <rect x="8" y="46" width="1" height="1" fill="#b45cf0"/>
  <rect x="4" y="45" width="8" height="1" fill="#0d0616"/>
  <rect x="5" y="45" width="6" height="1" fill="#4a2270"/>
  <rect x="4" y="44" width="8" height="1" fill="#0d0616"/>
  <rect x="5" y="44" width="6" height="1" fill="#4a2270"/>
  <rect x="5" y="43" width="7" height="1" fill="#0d0616"/>
  <rect x="6" y="43" width="5" height="1" fill="#4a2270"/>
  <rect x="5" y="42" width="7" height="1" fill="#0d0616"/>
  <rect x="6" y="42" width="5" height="1" fill="#4a2270"/>
  <rect x="8" y="42" width="1" height="1" fill="#b45cf0"/>
  <rect x="5" y="41" width="7" height="1" fill="#0d0616"/>
  <rect x="6" y="41" width="5" height="1" fill="#4a2270"/>
  <rect x="4" y="40" width="7" height="1" fill="#0d0616"/>
  <rect x="5" y="40" width="5" height="1" fill="#4a2270"/>
  <rect x="4" y="39" width="7" height="1" fill="#0d0616"/>
  <rect x="5" y="39" width="5" height="1" fill="#4a2270"/>
  <rect x="4" y="38" width="6" height="1" fill="#0d0616"/>
  <rect x="5" y="38" width="4" height="1" fill="#4a2270"/>
  <rect x="7" y="38" width="1" height="1" fill="#b45cf0"/>
  <rect x="4" y="37" width="6" height="1" fill="#0d0616"/>
  <rect x="5" y="37" width="4" height="1" fill="#4a2270"/>
  <rect x="3" y="36" width="6" height="1" fill="#0d0616"/>
  <rect x="4" y="36" width="4" height="1" fill="#4a2270"/>
  <rect x="3" y="35" width="6" height="1" fill="#0d0616"/>
  <rect x="4" y="35" width="4" height="1" fill="#4a2270"/>
  <rect x="2" y="34" width="6" height="1" fill="#0d0616"/>
  <rect x="3" y="34" width="4" height="1" fill="#4a2270"/>
  <rect x="5" y="34" width="1" height="1" fill="#b45cf0"/>
  <rect x="2" y="33" width="6" height="1" fill="#0d0616"/>
  <rect x="3" y="33" width="4" height="1" fill="#4a2270"/>
  <rect x="3" y="32" width="5" height="1" fill="#0d0616"/>
  <rect x="4" y="32" width="3" height="1" fill="#4a2270"/>
  <rect x="2" y="31" width="5" height="1" fill="#0d0616"/>
  <rect x="3" y="31" width="3" height="1" fill="#4a2270"/>
  <rect x="1" y="30" width="5" height="1" fill="#0d0616"/>
  <rect x="2" y="30" width="3" height="1" fill="#4a2270"/>
  <rect x="3" y="30" width="1" height="1" fill="#b45cf0"/>
  <rect x="1" y="29" width="5" height="1" fill="#0d0616"/>
  <rect x="2" y="29" width="3" height="1" fill="#4a2270"/>
  <rect x="0" y="28" width="5" height="1" fill="#0d0616"/>
  <rect x="1" y="28" width="3" height="1" fill="#4a2270"/>
  <rect x="0" y="27" width="4" height="1" fill="#0d0616"/>
  <rect x="1" y="27" width="2" height="1" fill="#4a2270"/>
  <rect x="-1" y="26" width="4" height="1" fill="#0d0616"/>
  <rect x="0" y="26" width="2" height="1" fill="#4a2270"/>
  <rect x="1" y="26" width="1" height="1" fill="#b45cf0"/>
  <rect x="-2" y="25" width="4" height="1" fill="#0d0616"/>
  <rect x="-1" y="25" width="2" height="1" fill="#4a2270"/>
  <rect x="-3" y="24" width="4" height="1" fill="#0d0616"/>
  <rect x="-2" y="24" width="2" height="1" fill="#4a2270"/>
  <rect x="-3" y="23" width="4" height="1" fill="#0d0616"/>
  <rect x="-2" y="23" width="2" height="1" fill="#4a2270"/>
  <rect x="-3" y="22" width="3" height="1" fill="#0d0616"/>
  <rect x="-2" y="22" width="1" height="1" fill="#4a2270"/>
  <rect x="-2" y="22" width="1" height="1" fill="#b45cf0"/>
  <rect x="-4" y="21" width="3" height="1" fill="#0d0616"/>
  <rect x="-3" y="21" width="1" height="1" fill="#4a2270"/>
  <rect x="-5" y="20" width="3" height="1" fill="#0d0616"/>
  <rect x="-4" y="20" width="1" height="1" fill="#4a2270"/>
  <rect x="-6" y="15" width="5" height="1" fill="#0d0616"/>
  <rect x="-7" y="16" width="7" height="1" fill="#0d0616"/>
  <rect x="-7" y="17" width="7" height="1" fill="#0d0616"/>
  <rect x="-8" y="18" width="9" height="1" fill="#0d0616"/>
  <rect x="-7" y="19" width="7" height="1" fill="#0d0616"/>
  <rect x="-7" y="20" width="7" height="1" fill="#0d0616"/>
  <rect x="-6" y="21" width="5" height="1" fill="#0d0616"/>
  <rect x="-6" y="16" width="5" height="1" fill="#b45cf0"/>
  <rect x="-6" y="17" width="5" height="1" fill="#b45cf0"/>
  <rect x="-7" y="18" width="7" height="1" fill="#b45cf0"/>
  <rect x="-6" y="19" width="5" height="1" fill="#b45cf0"/>
  <rect x="-6" y="20" width="5" height="1" fill="#b45cf0"/>
  <rect x="-5" y="18" width="3" height="1" fill="#efc6ff"/>
  <rect x="36" y="46" width="8" height="1" fill="#0d0616"/>
  <rect x="37" y="46" width="6" height="1" fill="#4a2270"/>
  <rect x="40" y="46" width="1" height="1" fill="#b45cf0"/>
  <rect x="36" y="45" width="8" height="1" fill="#0d0616"/>
  <rect x="37" y="45" width="6" height="1" fill="#4a2270"/>
  <rect x="36" y="44" width="8" height="1" fill="#0d0616"/>
  <rect x="37" y="44" width="6" height="1" fill="#4a2270"/>
  <rect x="37" y="43" width="7" height="1" fill="#0d0616"/>
  <rect x="38" y="43" width="5" height="1" fill="#4a2270"/>
  <rect x="37" y="42" width="7" height="1" fill="#0d0616"/>
  <rect x="38" y="42" width="5" height="1" fill="#4a2270"/>
  <rect x="40" y="42" width="1" height="1" fill="#b45cf0"/>
  <rect x="37" y="41" width="7" height="1" fill="#0d0616"/>
  <rect x="38" y="41" width="5" height="1" fill="#4a2270"/>
  <rect x="38" y="40" width="7" height="1" fill="#0d0616"/>
  <rect x="39" y="40" width="5" height="1" fill="#4a2270"/>
  <rect x="38" y="39" width="7" height="1" fill="#0d0616"/>
  <rect x="39" y="39" width="5" height="1" fill="#4a2270"/>
  <rect x="38" y="38" width="6" height="1" fill="#0d0616"/>
  <rect x="39" y="38" width="4" height="1" fill="#4a2270"/>
  <rect x="41" y="38" width="1" height="1" fill="#b45cf0"/>
  <rect x="38" y="37" width="6" height="1" fill="#0d0616"/>
  <rect x="39" y="37" width="4" height="1" fill="#4a2270"/>
  <rect x="39" y="36" width="6" height="1" fill="#0d0616"/>
  <rect x="40" y="36" width="4" height="1" fill="#4a2270"/>
  <rect x="39" y="35" width="6" height="1" fill="#0d0616"/>
  <rect x="40" y="35" width="4" height="1" fill="#4a2270"/>
  <rect x="40" y="34" width="6" height="1" fill="#0d0616"/>
  <rect x="41" y="34" width="4" height="1" fill="#4a2270"/>
  <rect x="43" y="34" width="1" height="1" fill="#b45cf0"/>
  <rect x="40" y="33" width="6" height="1" fill="#0d0616"/>
  <rect x="41" y="33" width="4" height="1" fill="#4a2270"/>
  <rect x="41" y="32" width="5" height="1" fill="#0d0616"/>
  <rect x="42" y="32" width="3" height="1" fill="#4a2270"/>
  <rect x="42" y="31" width="5" height="1" fill="#0d0616"/>
  <rect x="43" y="31" width="3" height="1" fill="#4a2270"/>
  <rect x="43" y="30" width="5" height="1" fill="#0d0616"/>
  <rect x="44" y="30" width="3" height="1" fill="#4a2270"/>
  <rect x="45" y="30" width="1" height="1" fill="#b45cf0"/>
  <rect x="43" y="29" width="5" height="1" fill="#0d0616"/>
  <rect x="44" y="29" width="3" height="1" fill="#4a2270"/>
  <rect x="44" y="28" width="5" height="1" fill="#0d0616"/>
  <rect x="45" y="28" width="3" height="1" fill="#4a2270"/>
  <rect x="44" y="27" width="4" height="1" fill="#0d0616"/>
  <rect x="45" y="27" width="2" height="1" fill="#4a2270"/>
  <rect x="45" y="26" width="4" height="1" fill="#0d0616"/>
  <rect x="46" y="26" width="2" height="1" fill="#4a2270"/>
  <rect x="47" y="26" width="1" height="1" fill="#b45cf0"/>
  <rect x="46" y="25" width="4" height="1" fill="#0d0616"/>
  <rect x="47" y="25" width="2" height="1" fill="#4a2270"/>
  <rect x="47" y="24" width="4" height="1" fill="#0d0616"/>
  <rect x="48" y="24" width="2" height="1" fill="#4a2270"/>
  <rect x="47" y="23" width="4" height="1" fill="#0d0616"/>
  <rect x="48" y="23" width="2" height="1" fill="#4a2270"/>
  <rect x="49" y="22" width="3" height="1" fill="#0d0616"/>
  <rect x="50" y="22" width="1" height="1" fill="#4a2270"/>
  <rect x="50" y="22" width="1" height="1" fill="#b45cf0"/>
  <rect x="50" y="21" width="3" height="1" fill="#0d0616"/>
  <rect x="51" y="21" width="1" height="1" fill="#4a2270"/>
  <rect x="51" y="20" width="3" height="1" fill="#0d0616"/>
  <rect x="52" y="20" width="1" height="1" fill="#4a2270"/>
  <rect x="50" y="15" width="5" height="1" fill="#0d0616"/>
  <rect x="49" y="16" width="7" height="1" fill="#0d0616"/>
  <rect x="49" y="17" width="7" height="1" fill="#0d0616"/>
  <rect x="48" y="18" width="9" height="1" fill="#0d0616"/>
  <rect x="49" y="19" width="7" height="1" fill="#0d0616"/>
  <rect x="49" y="20" width="7" height="1" fill="#0d0616"/>
  <rect x="50" y="21" width="5" height="1" fill="#0d0616"/>
  <rect x="50" y="16" width="5" height="1" fill="#b45cf0"/>
  <rect x="50" y="17" width="5" height="1" fill="#b45cf0"/>
  <rect x="49" y="18" width="7" height="1" fill="#b45cf0"/>
  <rect x="50" y="19" width="5" height="1" fill="#b45cf0"/>
  <rect x="50" y="20" width="5" height="1" fill="#b45cf0"/>
  <rect x="51" y="18" width="3" height="1" fill="#efc6ff"/>
</svg>
