<svg xmlns="http://www.w3.org/2000/svg" viewBox="0 0 48 48" width="100%" height="100%"
     style="image-rendering: pixelated; image-rendering: crisp-edges;">
  <rect x="19" y="12" width="11" height="1" fill="#0d2405"/>
  <rect x="17" y="13" width="15" height="1" fill="#0d2405"/>
  <rect x="16" y="14" width="17" height="1" fill="#0d2405"/>
  <rect x="15" y="15" width="19" height="1" fill="#0d2405"/>
  <rect x="14" y="16" width="21" height="1" fill="#0d2405"/>
  <rect x="13" y="17" width="23" height="1" fill="#0d2405"/>
  <rect x="12" y="18" width="25" height="1" fill="#0d2405"/>
  <rect x="12" y="19" width="25" height="1" fill="#0d2405"/>
  <rect x="11" y="20" width="27" height="1" fill="#0d2405"/>
  <rect x="11" y="21" width="27" height="1" fill="#0d2405"/>
  <rect x="11" y="22" width="27" height="1" fill="#0d2405"/>
  <rect x="11" y="23" width="27" height="1" fill="#0d2405"/>
  <rect x="11" y="24" width="27" height="1" fill="#0d2405"/>
  <rect x="10" y="25" width="29" height="1" fill="#0d2405"/>
  <rect x="11" y="26" width="27" height="1" fill="#0d2405"/>
  <rect x="11" y="27" width="27" height="1" fill="#0d2405"/>
  <rect x="11" y="28" width="27" height="1" fill="#0d2405"/>
  <rect x="11" y="29" width="27" height="1" fill="#0d2405"/>
  <rect x="11" y="30" width="27" height="1" fill="#0d2405"/>
  <rect x="12" y="31" width="25" height="1" fill="#0d2405"/>
  <rect x="12" y="32" width="25" height="1" fill="#0d2405"/>
  <rect x="13" y="33" width="23" height="1" fill="#0d2405"/>
  <rect x="14" y="34" width="21" height="1" fill="#0d2405"/>
  <rect x="15" y="35" width="19" height="1" fill="#0d2405"/>
  <rect x="16" y="36" width="17" height="1" fill="#0d2405"/>
  <rect x="17" y="37" width="15" height="1" fill="#0d2405"/>
  <rect x="19" y="38" width="11" height="1" fill="#0d2405"/>
  <rect x="11" y="11" width="9" height="1" fill="#0d2405"/>
  <rect x="10" y="12" width="11" height="1" fill="#0d2405"/>
  <rect x="9" y="13" width="13" height="1" fill="#0d2405"/>
  <rect x="8" y="14" width="15" height="1" fill="#0d2405"/>
  <rect x="7" y="15" width="17" height="1" fill="#0d2405"/>
  <rect x="7" y="16" width="17" height="1" fill="#0d2405"/>
  <rect x="7" y="17" width="17" height="1" fill="#0d2405"/>
  <rect x="7" y="18" width="17" height="1" fill="#0d2405"/>
  <rect x="6" y="19" width="19" height="1" fill="#0d2405"/>
  <rect x="7" y="20" width="17" height="1" fill="#0d2405"/>
  <rect x="7" y="21" width="17" height="1" fill="#0d2405"/>
  <rect x="7" y="22" width="17" height="1" fill="#0d2405"/>
  <rect x="7" y="23" width="17" height="1" fill="#0d2405"/>
  <rect x="8" y="24" width="15" height="1" fill="#0d2405"/>
  <rect x="9" y="25" width="13" height="1" fill="#0d2405"/>
  <rect x="10" y="26" width="11" height="1" fill="#0d2405"/>
  <rect x="11" y="27" width="9" height="1" fill="#0d2405"/>
  <rect x="30" y="13" width="7" height="1" fill="#0d2405"/>
  <rect x="28" y="14" width="11" height="1" fill="#0d2405"/>
  <rect x="27" y="15" width="13" height="1" fill="#0d2405"/>
  <rect x="27" y="16" width="13" height="1" fill="#0d2405"/>
  <rect x="26" y="17" width="15" height="1" fill="#0d2405"/>
  <rect x="26" y="18" width="15" height="1" fill="#0d2405"/>
  <rect x="26" y="19" width="15" height="1" fill="#0d2405"/>
  <rect x="25" y="20" width="17" height="1" fill="#0d2405"/>
  <rect x="26" y="21" width="15" height="1" fill="#0d2405"/>
  <rect x="26" y="22" width="15" height="1" fill="#0d2405"/>
  <rect x="26" y="23" width="15" height="1" fill="#0d2405"/>
  <rect x="27" y="24" width="13" height="1" fill="#0d2405"/>
  <rect x="27" y="25" width="13" height="1" fill="#0d2405"/>
  <rect x="28" y="26" width="11" height="1" fill="#0d2405"/>
  <rect x="30" y="27" width="7" height="1" fill="#0d2405"/>
  <rect x="24" y="26" width="9" height="1" fill="#0d2405"/>
  <rect x="23" y="27" width="11" height="1" fill="#0d2405"/>
  <rect x="22" y="28" width="13" height="1" fill="#0d2405"/>
  <rect x="21" y="29" width="15" height="1" fill="#0d2405"/>
  <rect x="20" y="30" width="17" height="1" fill="#0d2405"/>
  <rect x="20" y="31" width="17" height="1" fill="#0d2405"/>
  <rect x="20" y="32" width="17" height="1" fill="#0d2405"/>
  <rect x="20" y="33" width="17" height="1" fill="#0d2405"/>
  <rect x="19" y="34" width="19" height="1" fill="#0d2405"/>
  <rect x="20" y="35" width="17" height="1" fill="#0d2405"/>
  <rect x="20" y="36" width="17" height="1" fill="#0d2405"/>
  <rect x="20" y="37" width="17" height="1" fill="#0d2405"/>
  <rect x="20" y="38" width="17" height="1" fill="#0d2405"/>
  <rect x="21" y="39" width="15" height="1" fill="#0d2405"/>
  <rect x="22" y="40" width="13" height="1" fill="#0d2405"/>
  <rect x="23" y="41" width="11" height="1" fill="#0d2405"/>
  <rect x="24" y="42" width="9" height="1" fill="#0d2405"/>
  <rect x="12" y="27" width="7" height="1" fill="#0d2405"/>
  <rect x="11" y="28" width="9" height="1" fill="#0d2405"/>
  <rect x="10" y="29" width="11" height="1" fill="#0d2405"/>
  <rect x="9" y="30" width="13" height="1" fill="#0d2405"/>
  <rect x="9" y="31" width="13" height="1" fill="#0d2405"/>
  <rect x="9" y="32" width="13" height="1" fill="#0d2405"/>
  <rect x="8" y="33" width="15" height="1" fill="#0d2405"/>
  <rect x="9" y="34" width="13" height="1" fill="#0d2405"/>
  <rect x="9" y="35" width="13" height="1" fill="#0d2405"/>
  <rect x="9" y="36" width="13" height="1" fill="#0d2405"/>
  <rect x="10" y="37" width="11" height="1" fill="#0d2405"/>
  <rect x="11" y="38" width="9" height="1" fill="#0d2405"/>
  <rect x="12" y="39" width="7" height="1" fill="#0d2405"/>
  <rect x="18" y="13" width="5" height="1" fill="#0d2405"/>
  <rect x="17" y="14" width="7" height="1" fill="#0d2405"/>
  <rect x="16" y="15" width="9" height="1" fill="#0d2405"/>
  <rect x="16" y="16" width="9" height="1" fill="#0d2405"/>
  <rect x="16" y="17" width="9" height="1" fill="#0d2405"/>
  <rect x="16" y="18" width="9" height="1" fill="#0d2405"/>
  <rect x="16" y="19" width="9" height="1" fill="#0d2405"/>
  <rect x="17" y="20" width="7" height="1" fill="#0d2405"/>
  <rect x="18" y="21" width="5" height="1" fill="#0d2405"/>
  <rect x="18" y="12" width="5" height="1" fill="#0d2405"/>
  <rect x="17" y="13" width="7" height="1" fill="#0d2405"/>
  <rect x="16" y="14" width="9" height="1" fill="#0d2405"/>
  <rect x="16" y="15" width="9" height="1" fill="#0d2405"/>
  <rect x="16" y="16" width="9" height="1" fill="#0d2405"/>
  <rect x="16" y="17" width="9" height="1" fill="#0d2405"/>
  <rect x="16" y="18" width="9" height="1" fill="#0d2405"/>
  <rect x="17" y="19" width="7" height="1" fill="#0d2405"/>
  <rect x="18" y="20" width="5" height="1" fill="#0d2405"/>
  <rect x="17" y="12" width="5" height="1" fill="#0d2405"/>
  <rect x="16" y="13" width="7" height="1" fill="#0d2405"/>
  <rect x="16" y="14" width="7" height="1" fill="#0d2405"/>
  <rect x="15" y="15" width="9" height="1" fill="#0d2405"/>
  <rect x="16" y="16" width="7" height="1" fill="#0d2405"/>
  <rect x="16" y="17" width="7" height="1" fill="#0d2405"/>
  <rect x="17" y="18" width="5" height="1" fill="#0d2405"/>
  <rect x="17" y="11" width="5" height="1" fill="#0d2405"/>
  <rect x="16" y="12" width="7" height="1" fill="#0d2405"/>
  <rect x="16" y="13" width="7" height="1" fill="#0d2405"/>
  <rect x="15" y="14" width="9" height="1" fill="#0d2405"/>
  <rect x="16" y="15" width="7" height="1" fill="#0d2405"/>
  <rect x="16" y="16" width="7" height="1" fill="#0d2405"/>
  <rect x="17" y="17" width="5" height="1" fill="#0d2405"/>
  <rect x="16" y="10" width="5" height="1" fill="#0d2405"/>
  <rect x="15" y="11" width="7" height="1" fill="#0d2405"/>
  <rect x="15" y="12" width="7" height="1" fill="#0d2405"/>
  <rect x="14" y="13" width="9" height="1" fill="#0d2405"/>
  <rect x="15" y="14" width="7" height="1" fill="#0d2405"/>
  <rect x="15" y="15" width="7" height="1" fill="#0d2405"/>
  <rect x="16" y="16" width="5" height="1" fill="#0d2405"/>
  <rect x="17" y="10" width="3" height="1" fill="#0d2405"/>
  <rect x="16" y="11" width="5" height="1" fill="#0d2405"/>
  <rect x="15" y="12" width="7" height="1" fill="#0d2405"/>
  <rect x="15" y="13" width="7" height="1" fill="#0d2405"/>
  <rect x="15" y="14" width="7" height="1" fill="#0d2405"/>
  <rect x="16" y="15" width="5" height="1" fill="#0d2405"/>
  <rect x="17" y="16" width="3" height="1" fill="#0d2405"/>
  <rect x="16" y="9" width="3" height="1" fill="#0d2405"/>
  <rect x="15" y="10" width="5" height="1" fill="#0d2405"/>
  <rect x="14" y="11" width="7" height="1" fill="#0d2405"/>
  <rect x="14" y="12" width="7" height="1" fill="#0d2405"/>
  <rect x="14" y="13" width="7" height="1" fill="#0d2405"/>
  <rect x="15" y="14" width="5" height="1" fill="#0d2405"/>
  <rect x="16" y="15" width="3" height="1" fill="#0d2405"/>
  <rect x="16" y="8" width="3" height="1" fill="#0d2405"/>
  <rect x="15" y="9" width="5" height="1" fill="#0d2405"/>
  <rect x="14" y="10" width="7" height="1" fill="#0d2405"/>
  <rect x="14" y="11" width="7" height="1" fill="#0d2405"/>
  <rect x="14" y="12" width="7" height="1" fill="#0d2405"/>
  <rect x="15" y="13" width="5" height="1" fill="#0d2405"/>
  <rect x="16" y="14" width="3" height="1" fill="#0d2405"/>
  <rect x="14" y="8" width="5" height="1" fill="#0d2405"/>
  <rect x="14" y="9" width="5" height="1" fill="#0d2405"/>
  <rect x="13" y="10" width="7" height="1" fill="#0d2405"/>
  <rect x="14" y="11" width="5" height="1" fill="#0d2405"/>
  <rect x="14" y="12" width="5" height="1" fill="#0d2405"/>
  <rect x="14" y="7" width="5" height="1" fill="#0d2405"/>
  <rect x="14" y="8" width="5" height="1" fill="#0d2405"/>
  <rect x="13" y="9" width="7" height="1" fill="#0d2405"/>
  <rect x="14" y="10" width="5" height="1" fill="#0d2405"/>
  <rect x="14" y="11" width="5" height="1" fill="#0d2405"/>
  <rect x="14" y="6" width="5" height="1" fill="#0d2405"/>
  <rect x="14" y="7" width="5" height="1" fill="#0d2405"/>
  <rect x="13" y="8" width="7" height="1" fill="#0d2405"/>
  <rect x="14" y="9" width="5" height="1" fill="#0d2405"/>
  <rect x="14" y="10" width="5" height="1" fill="#0d2405"/>
  <rect x="14" y="5" width="3" height="1" fill="#0d2405"/>
  <rect x="13" y="6" width="5" height="1" fill="#0d2405"/>
  <rect x="13" y="7" width="5" height="1" fill="#0d2405"/>
  <rect x="13" y="8" width="5" height="1" fill="#0d2405"/>
  <rect x="14" y="9" width="3" height="1" fill="#0d2405"/>
  <rect x="14" y="4" width="3" height="1" fill="#0d2405"/>
  <rect x="13" y="5" width="5" height="1" fill="#0d2405"/>
  <rect x="13" y="6" width="5" height="1" fill="#0d2405"/>
  <rect x="13" y="7" width="5" height="1" fill="#0d2405"/>
  <rect x="14" y="8" width="3" height="1" fill="#0d2405"/>
  <rect x="13" y="4" width="3" height="1" fill="#0d2405"/>
  <rect x="12" y="5" width="5" height="1" fill="#0d2405"/>
  <rect x="13" y="6" width="3" height="1" fill="#0d2405"/>
  <rect x="13" y="4" width="3" height="1" fill="#0d2405"/>
  <rect x="12" y="5" width="5" height="1" fill="#0d2405"/>
  <rect x="13" y="6" width="3" height="1" fill="#0d2405"/>
  <rect x="12" y="3" width="3" height="1" fill="#0d2405"/>
  <rect x="11" y="4" width="5" height="1" fill="#0d2405"/>
  <rect x="12" y="5" width="3" height="1" fill="#0d2405"/>
  <rect x="9" y="-2" width="5" height="1" fill="#0d2405"/>
  <rect x="9" y="-1" width="5" height="1" fill="#0d2405"/>
  <rect x="8" y="0" width="7" height="1" fill="#0d2405"/>
  <rect x="9" y="1" width="5" height="1" fill="#0d2405"/>
  <rect x="9" y="2" width="5" height="1" fill="#0d2405"/>
  <rect x="29" y="16" width="5" height="1" fill="#0d2405"/>
  <rect x="28" y="17" width="7" height="1" fill="#0d2405"/>
  <rect x="27" y="18" width="9" height="1" fill="#0d2405"/>
  <rect x="27" y="19" width="9" height="1" fill="#0d2405"/>
  <rect x="27" y="20" width="9" height="1" fill="#0d2405"/>
  <rect x="27" y="21" width="9" height="1" fill="#0d2405"/>
  <rect x="27" y="22" width="9" height="1" fill="#0d2405"/>
  <rect x="28" y="23" width="7" height="1" fill="#0d2405"/>
  <rect x="29" y="24" width="5" height="1" fill="#0d2405"/>
  <rect x="30" y="15" width="5" height="1" fill="#0d2405"/>
  <rect x="29" y="16" width="7" height="1" fill="#0d2405"/>
  <rect x="28" y="17" width="9" height="1" fill="#0d2405"/>
  <rect x="28" y="18" width="9" height="1" fill="#0d2405"/>
  <rect x="28" y="19" width="9" height="1" fill="#0d2405"/>
  <rect x="28" y="20" width="9" height="1" fill="#0d2405"/>
  <rect x="28" y="21" width="9" height="1" fill="#0d2405"/>
  <rect x="29" y="22" width="7" height="1" fill="#0d2405"/>
  <rect x="30" y="23" width="5" height="1" fill="#0d2405"/>
  <rect x="30" y="16" width="5" height="1" fill="#0d2405"/>
  <rect x="29" y="17" width="7" height="1" fill="#0d2405"/>
  <rect x="29" y="18" width="7" height="1" fill="#0d2405"/>
  <rect x="28" y="19" width="9" height="1" fill="#0d2405"/>
  <rect x="29" y="20" width="7" height="1" fill="#0d2405"/>
  <rect x="29" y="21" width="7" height="1" fill="#0d2405"/>
  <rect x="30" y="22" width="5" height="1" fill="#0d2405"/>
  <rect x="31" y="15" width="5" height="1" fill="#0d2405"/>
  <rect x="30" y="16" width="7" height="1" fill="#0d2405"/>
  <rect x="30" y="17" width="7" height="1" fill="#0d2405"/>
  <rect x="29" y="18" width="9" height="1" fill="#0d2405"/>
  <rect x="30" y="19" width="7" height="1" fill="#0d2405"/>
  <rect x="30" y="20" width="7" height="1" fill="#0d2405"/>
  <rect x="31" y="21" width="5" height="1" fill="#0d2405"/>
  <rect x="33" y="15" width="3" height="1" fill="#0d2405"/>
  <rect x="32" y="16" width="5" height="1" fill="#0d2405"/>
  <rect x="31" y="17" width="7" height="1" fill="#0d2405"/>
  <rect x="31" y="18" width="7" height="1" fill="#0d2405"/>
  <rect x="31" y="19" width="7" height="1" fill="#0d2405"/>
  <rect x="32" y="20" width="5" height="1" fill="#0d2405"/>
  <rect x="33" y="21" width="3" height="1" fill="#0d2405"/>
  <rect x="34" y="14" width="3" height="1" fill="#0d2405"/>
  <rect x="33" y="15" width="5" height="1" fill="#0d2405"/>
  <rect x="32" y="16" width="7" height="1" fill="#0d2405"/>
  <rect x="32" y="17" width="7" height="1" fill="#0d2405"/>
  <rect x="32" y="18" width="7" height="1" fill="#0d2405"/>
  <rect x="33" y="19" width="5" height="1" fill="#0d2405"/>
  <rect x="34" y="20" width="3" height="1" fill="#0d2405"/>
  <rect x="34" y="15" width="5" height="1" fill="#0d2405"/>
  <rect x="34" y="16" width="5" height="1" fill="#0d2405"/>
  <rect x="33" y="17" width="7" height="1" fill="#0d2405"/>
  <rect x="34" y="18" width="5" height="1" fill="#0d2405"/>
  <rect x="34" y="19" width="5" height="1" fill="#0d2405"/>
  <rect x="35" y="14" width="5" height="1" fill="#0d2405"/>
  <rect x="35" y="15" width="5" height="1" fill="#0d2405"/>
  <rect x="34" y="16" width="7" height="1" fill="#0d2405"/>
  <rect x="35" y="17" width="5" height="1" fill="#0d2405"/>
  <rect x="35" y="18" width="5" height="1" fill="#0d2405"/>
  <rect x="36" y="14" width="5" height="1" fill="#0d2405"/>
  <rect x="36" y="15" width="5" height="1" fill="#0d2405"/>
  <rect x="35" y="16" width="7" height="1" fill="#0d2405"/>
  <rect x="36" y="17" width="5" height="1" fill="#0d2405"/>
  <rect x="36" y="18" width="5" height="1" fill="#0d2405"/>
  <rect x="37" y="13" width="3" height="1" fill="#0d2405"/>
  <rect x="36" y="14" width="5" height="1" fill="#0d2405"/>
  <rect x="36" y="15" width="5" height="1" fill="#0d2405"/>
  <rect x="36" y="16" width="5" height="1" fill="#0d2405"/>
  <rect x="37" y="17" width="3" height="1" fill="#0d2405"/>
  <rect x="38" y="12" width="3" height="1" fill="#0d2405"/>
  <rect x="37" y="13" width="5" height="1" fill="#0d2405"/>
  <rect x="37" y="14" width="5" height="1" fill="#0d2405"/>
  <rect x="37" y="15" width="5" height="1" fill="#0d2405"/>
  <rect x="38" y="16" width="3" height="1" fill="#0d2405"/>
  <rect x="39" y="13" width="3" height="1" fill="#0d2405"/>
  <rect x="38" y="14" width="5" height="1" fill="#0d2405"/>
  <rect x="39" y="15" width="3" height="1" fill="#0d2405"/>
  <rect x="40" y="12" width="3" height="1" fill="#0d2405"/>
  <rect x="39" y="13" width="5" height="1" fill="#0d2405"/>
  <rect x="40" y="14" width="3" height="1" fill="#0d2405"/>
  <rect x="42" y="9" width="5" height="1" fill="#0d2405"/>
  <rect x="42" y="10" width="5" height="1" fill="#0d2405"/>
  <rect x="41" y="11" width="7" height="1" fill="#0d2405"/>
  <rect x="42" y="12" width="5" height="1" fill="#0d2405"/>
  <rect x="42" y="13" width="5" height="1" fill="#0d2405"/>
  <rect x="26" y="27" width="5" height="1" fill="#0d2405"/>
  <rect x="25" y="28" width="7" height="1" fill="#0d2405"/>
  <rect x="24" y="29" width="9" height="1" fill="#0d2405"/>
  <rect x="24" y="30" width="9" height="1" fill="#0d2405"/>
  <rect x="24" y="31" width="9" height="1" fill="#0d2405"/>
  <rect x="24" y="32" width="9" height="1" fill="#0d2405"/>
  <rect x="24" y="33" width="9" height="1" fill="#0d2405"/>
  <rect x="25" y="34" width="7" height="1" fill="#0d2405"/>
  <rect x="26" y="35" width="5" height="1" fill="#0d2405"/>
  <rect x="27" y="29" width="5" height="1" fill="#0d2405"/>
  <rect x="26" y="30" width="7" height="1" fill="#0d2405"/>
  <rect x="26" y="31" width="7" height="1" fill="#0d2405"/>
  <rect x="25" y="32" width="9" height="1" fill="#0d2405"/>
  <rect x="26" y="33" width="7" height="1" fill="#0d2405"/>
  <rect x="26" y="34" width="7" height="1" fill="#0d2405"/>
  <rect x="27" y="35" width="5" height="1" fill="#0d2405"/>
  <rect x="27" y="29" width="5" height="1" fill="#0d2405"/>
  <rect x="26" y="30" width="7" height="1" fill="#0d2405"/>
  <rect x="26" y="31" width="7" height="1" fill="#0d2405"/>
  <rect x="25" y="32" width="9" height="1" fill="#0d2405"/>
  <rect x="26" y="33" width="7" height="1" fill="#0d2405"/>
  <rect x="26" y="34" width="7" height="1" fill="#0d2405"/>
  <rect x="27" y="35" width="5" height="1" fill="#0d2405"/>
  <rect x="29" y="30" width="3" height="1" fill="#0d2405"/>
  <rect x="28" y="31" width="5" height="1" fill="#0d2405"/>
  <rect x="27" y="32" width="7" height="1" fill="#0d2405"/>
  <rect x="27" y="33" width="7" height="1" fill="#0d2405"/>
  <rect x="27" y="34" width="7" height="1" fill="#0d2405"/>
  <rect x="28" y="35" width="5" height="1" fill="#0d2405"/>
  <rect x="29" y="36" width="3" height="1" fill="#0d2405"/>
  <rect x="29" y="31" width="3" height="1" fill="#0d2405"/>
  <rect x="28" y="32" width="5" height="1" fill="#0d2405"/>
  <rect x="27" y="33" width="7" height="1" fill="#0d2405"/>
  <rect x="27" y="34" width="7" height="1" fill="#0d2405"/>
  <rect x="27" y="35" width="7" height="1" fill="#0d2405"/>
  <rect x="28" y="36" width="5" height="1" fill="#0d2405"/>
  <rect x="29" y="37" width="3" height="1" fill="#0d2405"/>
  <rect x="29" y="33" width="5" height="1" fill="#0d2405"/>
  <rect x="29" y="34" width="5" height="1" fill="#0d2405"/>
  <rect x="28" y="35" width="7" height="1" fill="#0d2405"/>
  <rect x="29" y="36" width="5" height="1" fill="#0d2405"/>
  <rect x="29" y="37" width="5" height="1" fill="#0d2405"/>
  <rect x="29" y="34" width="5" height="1" fill="#0d2405"/>
  <rect x="29" y="35" width="5" height="1" fill="#0d2405"/>
  <rect x="28" y="36" width="7" height="1" fill="#0d2405"/>
  <rect x="29" y="37" width="5" height="1" fill="#0d2405"/>
  <rect x="29" y="38" width="5" height="1" fill="#0d2405"/>
  <rect x="31" y="35" width="3" height="1" fill="#0d2405"/>
  <rect x="30" y="36" width="5" height="1" fill="#0d2405"/>
  <rect x="30" y="37" width="5" height="1" fill="#0d2405"/>
  <rect x="30" y="38" width="5" height="1" fill="#0d2405"/>
  <rect x="31" y="39" width="3" height="1" fill="#0d2405"/>
  <rect x="31" y="37" width="3" height="1" fill="#0d2405"/>
  <rect x="30" y="38" width="5" height="1" fill="#0d2405"/>
  <rect x="31" y="39" width="3" height="1" fill="#0d2405"/>
  <rect x="32" y="37" width="3" height="1" fill="#0d2405"/>
  <rect x="31" y="38" width="5" height="1" fill="#0d2405"/>
  <rect x="32" y="39" width="3" height="1" fill="#0d2405"/>
  <rect x="33" y="40" width="5" height="1" fill="#0d2405"/>
  <rect x="33" y="41" width="5" height="1" fill="#0d2405"/>
  <rect x="32" y="42" width="7" height="1" fill="#0d2405"/>
  <rect x="33" y="43" width="5" height="1" fill="#0d2405"/>
  <rect x="33" y="44" width="5" height="1" fill="#0d2405"/>
  <rect x="16" y="25" width="5" height="1" fill="#0d2405"/>
  <rect x="15" y="26" width="7" height="1" fill="#0d2405"/>
  <rect x="14" y="27" width="9" height="1" fill="#0d2405"/>
  <rect x="14" y="28" width="9" height="1" fill="#0d2405"/>
  <rect x="14" y="29" width="9" height="1" fill="#0d2405"/>
  <rect x="14" y="30" width="9" height="1" fill="#0d2405"/>
  <rect x="14" y="31" width="9" height="1" fill="#0d2405"/>
  <rect x="15" y="32" width="7" height="1" fill="#0d2405"/>
  <rect x="16" y="33" width="5" height="1" fill="#0d2405"/>
  <rect x="15" y="26" width="5" height="1" fill="#0d2405"/>
  <rect x="14" y="27" width="7" height="1" fill="#0d2405"/>
  <rect x="13" y="28" width="9" height="1" fill="#0d2405"/>
  <rect x="13" y="29" width="9" height="1" fill="#0d2405"/>
  <rect x="13" y="30" width="9" height="1" fill="#0d2405"/>
  <rect x="13" y="31" width="9" height="1" fill="#0d2405"/>
  <rect x="13" y="32" width="9" height="1" fill="#0d2405"/>
  <rect x="14" y="33" width="7" height="1" fill="#0d2405"/>
  <rect x="15" y="34" width="5" height="1" fill="#0d2405"/>
  <rect x="14" y="27" width="5" height="1" fill="#0d2405"/>
  <rect x="13" y="28" width="7" height="1" fill="#0d2405"/>
  <rect x="13" y="29" width="7" height="1" fill="#0d2405"/>
  <rect x="12" y="30" width="9" height="1" fill="#0d2405"/>
  <rect x="13" y="31" width="7" height="1" fill="#0d2405"/>
  <rect x="13" y="32" width="7" height="1" fill="#0d2405"/>
  <rect x="14" y="33" width="5" height="1" fill="#0d2405"/>
  <rect x="14" y="28" width="5" height="1" fill="#0d2405"/>
  <rect x="13" y="29" width="7" height="1" fill="#0d2405"/>
  <rect x="13" y="30" width="7" height="1" fill="#0d2405"/>
  <rect x="12" y="31" width="9" height="1" fill="#0d2405"/>
  <rect x="13" y="32" width="7" height="1" fill="#0d2405"/>
  <rect x="13" y="33" width="7" height="1" fill="#0d2405"/>
  <rect x="14" y="34" width="5" height="1" fill="#0d2405"/>
  <rect x="14" y="29" width="3" height="1" fill="#0d2405"/>
  <rect x="13" y="30" width="5" height="1" fill="#0d2405"/>
  <rect x="12" y="31" width="7" height="1" fill="#0d2405"/>
  <rect x="12" y="32" width="7" height="1" fill="#0d2405"/>
  <rect x="12" y="33" width="7" height="1" fill="#0d2405"/>
  <rect x="13" y="34" width="5" height="1" fill="#0d2405"/>
  <rect x="14" y="35" width="3" height="1" fill="#0d2405"/>
  <rect x="13" y="29" width="3" height="1" fill="#0d2405"/>
  <rect x="12" y="30" width="5" height="1" fill="#0d2405"/>
  <rect x="11" y="31" width="7" height="1" fill="#0d2405"/>
  <rect x="11" y="32" width="7" height="1" fill="#0d2405"/>
  <rect x="11" y="33" width="7" height="1" fill="#0d2405"/>
  <rect x="12" y="34" width="5" height="1" fill="#0d2405"/>
  <rect x="13" y="35" width="3" height="1" fill="#0d2405"/>
  <rect x="12" y="30" width="3" height="1" fill="#0d2405"/>
  <rect x="11" y="31" width="5" height="1" fill="#0d2405"/>
  <rect x="10" y="32" width="7" height="1" fill="#0d2405"/>
  <rect x="10" y="33" width="7" height="1" fill="#0d2405"/>
  <rect x="10" y="34" width="7" height="1" fill="#0d2405"/>
  <rect x="11" y="35" width="5" height="1" fill="#0d2405"/>
  <rect x="12" y="36" width="3" height="1" fill="#0d2405"/>
  <rect x="11" y="32" width="5" height="1" fill="#0d2405"/>
  <rect x="11" y="33" width="5" height="1" fill="#0d2405"/>
  <rect x="10" y="34" width="7" height="1" fill="#0d2405"/>
  <rect x="11" y="35" width="5" height="1" fill="#0d2405"/>
  <rect x="11" y="36" width="5" height="1" fill="#0d2405"/>
  <rect x="10" y="32" width="5" height="1" fill="#0d2405"/>
  <rect x="10" y="33" width="5" height="1" fill="#0d2405"/>
  <rect x="9" y="34" width="7" height="1" fill="#0d2405"/>
  <rect x="10" y="35" width="5" height="1" fill="#0d2405"/>
  <rect x="10" y="36" width="5" height="1" fill="#0d2405"/>
  <rect x="10" y="33" width="3" height="1" fill="#0d2405"/>
  <rect x="9" y="34" width="5" height="1" fill="#0d2405"/>
  <rect x="9" y="35" width="5" height="1" fill="#0d2405"/>
  <rect x="9" y="36" width="5" height="1" fill="#0d2405"/>
  <rect x="10" y="37" width="3" height="1" fill="#0d2405"/>
  <rect x="9" y="34" width="3" height="1" fill="#0d2405"/>
  <rect x="8" y="35" width="5" height="1" fill="#0d2405"/>
  <rect x="8" y="36" width="5" height="1" fill="#0d2405"/>
  <rect x="8" y="37" width="5" height="1" fill="#0d2405"/>
  <rect x="9" y="38" width="3" height="1" fill="#0d2405"/>
  <rect x="8" y="34" width="3" height="1" fill="#0d2405"/>
  <rect x="7" y="35" width="5" height="1" fill="#0d2405"/>
  <rect x="7" y="36" width="5" height="1" fill="#0d2405"/>
  <rect x="7" y="37" width="5" height="1" fill="#0d2405"/>
  <rect x="8" y="38" width="3" height="1" fill="#0d2405"/>
  <rect x="8" y="36" width="3" height="1" fill="#0d2405"/>
  <rect x="7" y="37" width="5" height="1" fill="#0d2405"/>
  <rect x="8" y="38" width="3" height="1" fill="#0d2405"/>
  <rect x="7" y="36" width="3" height="1" fill="#0d2405"/>
  <rect x="6" y="37" width="5" height="1" fill="#0d2405"/>
  <rect x="7" y="38" width="3" height="1" fill="#0d2405"/>
  <rect x="3" y="38" width="5" height="1" fill="#0d2405"/>
  <rect x="3" y="39" width="5" height="1" fill="#0d2405"/>
  <rect x="2" y="40" width="7" height="1" fill="#0d2405"/>
  <rect x="3" y="41" width="5" height="1" fill="#0d2405"/>
  <rect x="3" y="42" width="5" height="1" fill="#0d2405"/>
  <rect x="20" y="14" width="9" height="1" fill="#2e7a12"/>
  <rect x="18" y="15" width="13" height="1" fill="#2e7a12"/>
  <rect x="17" y="16" width="15" height="1" fill="#2e7a12"/>
  <rect x="16" y="17" width="17" height="1" fill="#2e7a12"/>
  <rect x="15" y="18" width="19" height="1" fill="#2e7a12"/>
  <rect x="14" y="19" width="21" height="1" fill="#2e7a12"/>
  <rect x="14" y="20" width="21" height="1" fill="#2e7a12"/>
  <rect x="13" y="21" width="23" height="1" fill="#2e7a12"/>
  <rect x="13" y="22" width="23" height="1" fill="#2e7a12"/>
  <rect x="13" y="23" width="23" height="1" fill="#2e7a12"/>
  <rect x="13" y="24" width="23" height="1" fill="#2e7a12"/>
  <rect x="12" y="25" width="25" height="1" fill="#2e7a12"/>
  <rect x="13" y="26" width="23" height="1" fill="#2e7a12"/>
  <rect x="13" y="27" width="23" height="1" fill="#2e7a12"/>
  <rect x="13" y="28" width="23" height="1" fill="#2e7a12"/>
  <rect x="13" y="29" width="23" height="1" fill="#2e7a12"/>
  <rect x="14" y="30" width="21" height="1" fill="#2e7a12"/>
  <rect x="14" y="31" width="21" height="1" fill="#2e7a12"/>
  <rect x="15" y="32" width="19" height="1" fill="#2e7a12"/>
  <rect x="16" y="33" width="17" height="1" fill="#2e7a12"/>
  <rect x="17" y="34" width="15" height="1" fill="#2e7a12"/>
  <rect x="18" y="35" width="13" height="1" fill="#2e7a12"/>
  <rect x="20" y="36" width="9" height="1" fill="#2e7a12"/>
  <rect x="12" y="13" width="7" height="1" fill="#2e7a12"/>
  <rect x="11" y="14" width="9" height="1" fill="#2e7a12"/>
  <rect x="10" y="15" width="11" height="1" fill="#2e7a12"/>
  <rect x="9" y="16" width="13" height="1" fill="#2e7a12"/>
  <rect x="9" y="17" width="13" height="1" fill="#2e7a12"/>
  <rect x="9" y="18" width="13" height="1" fill="#2e7a12"/>
  <rect x="8" y="19" width="15" height="1" fill="#2e7a12"/>
  <rect x="9" y="20" width="13" height="1" fill="#2e7a12"/>
  <rect x="9" y="21" width="13" height="1" fill="#2e7a12"/>
  <rect x="9" y="22" width="13" height="1" fill="#2e7a12"/>
  <rect x="10" y="23" width="11" height="1" fill="#2e7a12"/>
  <rect x="11" y="24" width="9" height="1" fill="#2e7a12"/>
  <rect x="12" y="25" width="7" height="1" fill="#2e7a12"/>
  <rect x="30" y="15" width="7" height="1" fill="#2e7a12"/>
  <rect x="29" y="16" width="9" height="1" fill="#2e7a12"/>
  <rect x="28" y="17" width="11" height="1" fill="#2e7a12"/>
  <rect x="28" y="18" width="11" height="1" fill="#2e7a12"/>
  <rect x="28" y="19" width="11" height="1" fill="#2e7a12"/>
  <rect x="27" y="20" width="13" height="1" fill="#2e7a12"/>
  <rect x="28" y="21" width="11" height="1" fill="#2e7a12"/>
  <rect x="28" y="22" width="11" height="1" fill="#2e7a12"/>
  <rect x="28" y="23" width="11" height="1" fill="#2e7a12"/>
  <rect x="29" y="24" width="9" height="1" fill="#2e7a12"/>
  <rect x="30" y="25" width="7" height="1" fill="#2e7a12"/>
  <rect x="25" y="28" width="7" height="1" fill="#2e7a12"/>
  <rect x="24" y="29" width="9" height="1" fill="#2e7a12"/>
  <rect x="23" y="30" width="11" height="1" fill="#2e7a12"/>
  <rect x="22" y="31" width="13" height="1" fill="#2e7a12"/>
  <rect x="22" y="32" width="13" height="1" fill="#2e7a12"/>
  <rect x="22" y="33" width="13" height="1" fill="#2e7a12"/>
  <rect x="21" y="34" width="15" height="1" fill="#2e7a12"/>
  <rect x="22" y="35" width="13" height="1" fill="#2e7a12"/>
  <rect x="22" y="36" width="13" height="1" fill="#2e7a12"/>
  <rect x="22" y="37" width="13" height="1" fill="#2e7a12"/>
  <rect x="23" y="38" width="11" height="1" fill="#2e7a12"/>
  <rect x="24" y="39" width="9" height="1" fill="#2e7a12"/>
  <rect x="25" y="40" width="7" height="1" fill="#2e7a12"/>
  <rect x="12" y="29" width="7" height="1" fill="#2e7a12"/>
  <rect x="11" y="30" width="9" height="1" fill="#2e7a12"/>
  <rect x="11" y="31" width="9" height="1" fill="#2e7a12"/>
  <rect x="11" y="32" width="9" height="1" fill="#2e7a12"/>
  <rect x="10" y="33" width="11" height="1" fill="#2e7a12"/>
  <rect x="11" y="34" width="9" height="1" fill="#2e7a12"/>
  <rect x="11" y="35" width="9" height="1" fill="#2e7a12"/>
  <rect x="11" y="36" width="9" height="1" fill="#2e7a12"/>
  <rect x="12" y="37" width="7" height="1" fill="#2e7a12"/>
  <rect x="19" y="15" width="3" height="1" fill="#2e7a12"/>
  <rect x="18" y="16" width="5" height="1" fill="#2e7a12"/>
  <rect x="18" y="17" width="5" height="1" fill="#2e7a12"/>
  <rect x="18" y="18" width="5" height="1" fill="#2e7a12"/>
  <rect x="19" y="19" width="3" height="1" fill="#2e7a12"/>
  <rect x="19" y="14" width="3" height="1" fill="#2e7a12"/>
  <rect x="18" y="15" width="5" height="1" fill="#2e7a12"/>
  <rect x="18" y="16" width="5" height="1" fill="#2e7a12"/>
  <rect x="18" y="17" width="5" height="1" fill="#2e7a12"/>
  <rect x="19" y="18" width="3" height="1" fill="#2e7a12"/>
  <rect x="18" y="14" width="3" height="1" fill="#2e7a12"/>
  <rect x="17" y="15" width="5" height="1" fill="#2e7a12"/>
  <rect x="18" y="16" width="3" height="1" fill="#2e7a12"/>
  <rect x="18" y="13" width="3" height="1" fill="#2e7a12"/>
  <rect x="17" y="14" width="5" height="1" fill="#2e7a12"/>
  <rect x="18" y="15" width="3" height="1" fill="#2e7a12"/>
  <rect x="17" y="12" width="3" height="1" fill="#2e7a12"/>
  <rect x="16" y="13" width="5" height="1" fill="#2e7a12"/>
  <rect x="17" y="14" width="3" height="1" fill="#2e7a12"/>
  <rect x="17" y="12" width="3" height="1" fill="#2e7a12"/>
  <rect x="17" y="13" width="3" height="1" fill="#2e7a12"/>
  <rect x="17" y="14" width="3" height="1" fill="#2e7a12"/>
  <rect x="16" y="11" width="3" height="1" fill="#2e7a12"/>
  <rect x="16" y="12" width="3" height="1" fill="#2e7a12"/>
  <rect x="16" y="13" width="3" height="1" fill="#2e7a12"/>
  <rect x="16" y="10" width="3" height="1" fill="#2e7a12"/>
  <rect x="16" y="11" width="3" height="1" fill="#2e7a12"/>
  <rect x="16" y="12" width="3" height="1" fill="#2e7a12"/>
  <rect x="15" y="10" width="3" height="1" fill="#2e7a12"/>
  <rect x="15" y="9" width="3" height="1" fill="#2e7a12"/>
  <rect x="15" y="8" width="3" height="1" fill="#2e7a12"/>





  <rect x="10" y="0" width="3" height="1" fill="#2e7a12"/>
  <rect x="30" y="18" width="3" height="1" fill="#2e7a12"/>
  <rect x="29" y="19" width="5" height="1" fill="#2e7a12"/>
  <rect x="29" y="20" width="5" height="1" fill="#2e7a12"/>
  <rect x="29" y="21" width="5" height="1" fill="#2e7a12"/>
  <rect x="30" y="22" width="3" height="1" fill="#2e7a12"/>
  <rect x="31" y="17" width="3" height="1" fill="#2e7a12"/>
  <rect x="30" y="18" width="5" height="1" fill="#2e7a12"/>
  <rect x="30" y="19" width="5" height="1" fill="#2e7a12"/>
  <rect x="30" y="20" width="5" height="1" fill="#2e7a12"/>
  <rect x="31" y="21" width="3" height="1" fill="#2e7a12"/>
  <rect x="31" y="18" width="3" height="1" fill="#2e7a12"/>
  <rect x="30" y="19" width="5" height="1" fill="#2e7a12"/>
  <rect x="31" y="20" width="3" height="1" fill="#2e7a12"/>
  <rect x="32" y="17" width="3" height="1" fill="#2e7a12"/>
  <rect x="31" y="18" width="5" height="1" fill="#2e7a12"/>
  <rect x="32" y="19" width="3" height="1" fill="#2e7a12"/>
  <rect x="33" y="17" width="3" height="1" fill="#2e7a12"/>
  <rect x="33" y="18" width="3" height="1" fill="#2e7a12"/>
  <rect x="33" y="19" width="3" height="1" fill="#2e7a12"/>
  <rect x="34" y="16" width="3" height="1" fill="#2e7a12"/>
  <rect x="34" y="17" width="3" height="1" fill="#2e7a12"/>
  <rect x="34" y="18" width="3" height="1" fill="#2e7a12"/>
  <rect x="35" y="17" width="3" height="1" fill="#2e7a12"/>
  <rect x="36" y="16" width="3" height="1" fill="#2e7a12"/>
  <rect x="37" y="16" width="3" height="1" fill="#2e7a12"/>




  <rect x="43" y="11" width="3" height="1" fill="#2e7a12"/>
  <rect x="27" y="29" width="3" height="1" fill="#2e7a12"/>
  <rect x="26" y="30" width="5" height="1" fill="#2e7a12"/>
  <rect x="26" y="31" width="5" height="1" fill="#2e7a12"/>
  <rect x="26" y="32" width="5" height="1" fill="#2e7a12"/>
  <rect x="27" y="33" width="3" height="1" fill="#2e7a12"/>
  <rect x="28" y="31" width="3" height="1" fill="#2e7a12"/>
  <rect x="27" y="32" width="5" height="1" fill="#2e7a12"/>
  <rect x="28" y="33" width="3" height="1" fill="#2e7a12"/>
  <rect x="28" y="31" width="3" height="1" fill="#2e7a12"/>
  <rect x="27" y="32" width="5" height="1" fill="#2e7a12"/>
  <rect x="28" y="33" width="3" height="1" fill="#2e7a12"/>
  <rect x="29" y="32" width="3" height="1" fill="#2e7a12"/>
  <rect x="29" y="33" width="3" height="1" fill="#2e7a12"/>
  <rect x="29" y="34" width="3" height="1" fill="#2e7a12"/>
  <rect x="29" y="33" width="3" height="1" fill="#2e7a12"/>
  <rect x="29" y="34" width="3" height="1" fill="#2e7a12"/>
  <rect x="29" y="35" width="3" height="1" fill="#2e7a12"/>
  <rect x="30" y="35" width="3" height="1" fill="#2e7a12"/>
  <rect x="30" y="36" width="3" height="1" fill="#2e7a12"/>



  <rect x="34" y="42" width="3" height="1" fill="#2e7a12"/>
  <rect x="17" y="27" width="3" height="1" fill="#2e7a12"/>
  <rect x="16" y="28" width="5" height="1" fill="#2e7a12"/>
  <rect x="16" y="29" width="5" height="1" fill="#2e7a12"/>
  <rect x="16" y="30" width="5" height="1" fill="#2e7a12"/>
  <rect x="17" y="31" width="3" height="1" fill="#2e7a12"/>
  <rect x="16" y="28" width="3" height="1" fill="#2e7a12"/>
  <rect x="15" y="29" width="5" height="1" fill="#2e7a12"/>
  <rect x="15" y="30" width="5" height="1" fill="#2e7a12"/>
  <rect x="15" y="31" width="5" height="1" fill="#2e7a12"/>
  <rect x="16" y="32" width="3" height="1" fill="#2e7a12"/>
  <rect x="15" y="29" width="3" height="1" fill="#2e7a12"/>
  <rect x="14" y="30" width="5" height="1" fill="#2e7a12"/>
  <rect x="15" y="31" width="3" height="1" fill="#2e7a12"/>
  <rect x="15" y="30" width="3" height="1" fill="#2e7a12"/>
  <rect x="14" y="31" width="5" height="1" fill="#2e7a12"/>
  <rect x="15" y="32" width="3" height="1" fill="#2e7a12"/>
  <rect x="14" y="31" width="3" height="1" fill="#2e7a12"/>
  <rect x="14" y="32" width="3" height="1" fill="#2e7a12"/>
  <rect x="14" y="33" width="3" height="1" fill="#2e7a12"/>
  <rect x="13" y="31" width="3" height="1" fill="#2e7a12"/>
  <rect x="13" y="32" width="3" height="1" fill="#2e7a12"/>
  <rect x="13" y="33" width="3" height="1" fill="#2e7a12"/>
  <rect x="12" y="32" width="3" height="1" fill="#2e7a12"/>
  <rect x="12" y="33" width="3" height="1" fill="#2e7a12"/>
  <rect x="12" y="34" width="3" height="1" fill="#2e7a12"/>
  <rect x="12" y="34" width="3" height="1" fill="#2e7a12"/>
  <rect x="11" y="34" width="3" height="1" fill="#2e7a12"/>





  <rect x="4" y="40" width="3" height="1" fill="#2e7a12"/>
  <rect x="15" y="15" width="7" height="1" fill="#8cf24a"/>
  <rect x="14" y="16" width="9" height="1" fill="#8cf24a"/>
  <rect x="14" y="17" width="9" height="1" fill="#8cf24a"/>
  <rect x="14" y="18" width="9" height="1" fill="#8cf24a"/>
  <rect x="13" y="19" width="11" height="1" fill="#8cf24a"/>
  <rect x="14" y="20" width="9" height="1" fill="#8cf24a"/>
  <rect x="14" y="21" width="9" height="1" fill="#8cf24a"/>
  <rect x="14" y="22" width="9" height="1" fill="#8cf24a"/>
  <rect x="15" y="23" width="7" height="1" fill="#8cf24a"/>
  <rect x="26" y="25" width="5" height="1" fill="#8cf24a"/>
  <rect x="25" y="26" width="7" height="1" fill="#8cf24a"/>
  <rect x="25" y="27" width="7" height="1" fill="#8cf24a"/>
  <rect x="24" y="28" width="9" height="1" fill="#8cf24a"/>
  <rect x="25" y="29" width="7" height="1" fill="#8cf24a"/>
  <rect x="25" y="30" width="7" height="1" fill="#8cf24a"/>
  <rect x="26" y="31" width="5" height="1" fill="#8cf24a"/>
  <rect x="16" y="17" width="3" height="1" fill="#e8ffc0"/>
  <rect x="15" y="18" width="5" height="1" fill="#e8ffc0"/>
  <rect x="16" y="19" width="3" height="1" fill="#e8ffc0"/>
</svg>
