<svg xmlns="http://www.w3.org/2000/svg" viewBox="0 0 96 96" width="100%" height="100%" style="image-rendering:pixelated;image-rendering:crisp-edges">
  <polygon points="5,46 22,36 47,38 47,43 24,43 10,50" fill="#9BD7A3" opacity="0.72"/><polygon points="3,56 25,50 43,52 43,57 24,57 8,61" fill="#D7F1B8" opacity="0.86"/><rect x="15" y="31" width="13" height="3" fill="#F5E9A8" opacity="0.8"/><rect x="8" y="65" width="17" height="3" fill="#78B985" opacity="0.7"/>
  <polygon points="51,22 66,16 79,22 88,35 89,52 82,67 69,76 52,75 39,66 33,52 36,36 43,27" fill="#315B3A"/><polygon points="52,25 65,20 76,25 84,36 85,50 79,62 68,70 54,70 43,63 38,51 40,39 46,30" fill="#78BD63"/><polygon points="54,28 65,24 73,28 79,36 81,47 76,57 67,63 57,64 48,59 43,51 44,42 49,35" fill="#A8D978"/>
  <rect x="61" y="30" width="9" height="3" fill="#F3ED9B"/><rect x="69" y="33" width="6" height="3" fill="#F3ED9B"/><rect x="73" y="36" width="4" height="11" fill="#E4D65C"/><rect x="69" y="45" width="7" height="4" fill="#E4D65C"/><rect x="58" y="48" width="13" height="4" fill="#D2C342"/><rect x="54" y="43" width="5" height="8" fill="#D2C342"/><rect x="55" y="38" width="5" height="5" fill="#F8F2B5"/><rect x="59" y="35" width="9" height="4" fill="#F8F2B5"/><rect x="65" y="38" width="5" height="8" fill="#709F42"/><rect x="61" y="43" width="6" height="3" fill="#4F7C36"/>
  <rect x="47" y="32" width="5" height="7" fill="#DDF2A8"/><rect x="44" y="39" width="3" height="8" fill="#C8E995"/><polygon points="26,27 33,23 38,25 32,30" fill="#F4D86B"/><rect x="31" y="28" width="2" height="6" fill="#9A7136"/><polygon points="25,70 31,66 37,69 30,73" fill="#EFBF59"/><rect x="25" y="43" width="3" height="3" fill="#FFF2B2"/><rect x="16" y="53" width="2" height="2" fill="#FFF8D8"/><rect x="36" y="32" width="2" height="2" fill="#FFF8D8"/>
</svg>
